<svg width="15" height="13" viewBox="0 0 15 13" fill="none" xmlns="http://www.w3.org/2000/svg">
<path d="M7.88477 3.8998C7.88477 3.78488 7.83867 3.67466 7.75663 3.5934C7.67458 3.51214 7.5633 3.46649 7.44727 3.46649C7.33123 3.46649 7.21995 3.51214 7.13791 3.5934C7.05586 3.67466 7.00977 3.78488 7.00977 3.8998V7.36628C7.00977 7.48121 7.05586 7.59142 7.13791 7.67268C7.21995 7.75394 7.33123 7.7996 7.44727 7.7996H10.0723C10.1883 7.7996 10.2996 7.75394 10.3816 7.67268C10.4637 7.59142 10.5098 7.48121 10.5098 7.36628C10.5098 7.25136 10.4637 7.14115 10.3816 7.05989C10.2996 6.97863 10.1883 6.93297 10.0723 6.93297H7.88477V3.8998ZM2.06864 5.02641C1.70226 4.77081 1.4034 4.43159 1.19734 4.03743C0.991275 3.64328 0.884063 3.20578 0.884769 2.76192C0.884769 1.24014 2.12202 0 3.65502 0C4.59739 0 5.42777 0.469709 5.92739 1.18294C6.55814 0.972764 7.21928 0.865921 7.88477 0.866622C8.54804 0.865865 9.20704 0.971817 9.83602 1.18034C10.0907 0.816218 10.4308 0.518645 10.827 0.313085C11.2232 0.107526 11.6637 9.94e-05 12.111 0C12.4756 0.000227497 12.8365 0.0715845 13.1732 0.209995C13.5099 0.348406 13.8158 0.551159 14.0734 0.806673C14.331 1.06219 14.5352 1.36546 14.6744 1.69916C14.8136 2.03286 14.8851 2.39046 14.8848 2.75152C14.8848 3.68748 14.414 4.51337 13.6956 5.01081C13.8995 5.61484 14.0098 6.26134 14.0098 6.93297C14.0118 8.39269 13.4803 9.80382 12.5135 10.9056L13.882 12.2592C13.964 12.3406 14.0101 12.4509 14.01 12.5659C14.0099 12.6809 13.9637 12.7911 13.8816 12.8724C13.7994 12.9536 13.6881 12.9992 13.572 12.9991C13.4559 12.9991 13.3446 12.9533 13.2625 12.8719L11.8958 11.5183C10.7832 12.4755 9.35849 13.0016 7.88477 12.9993C6.41093 13.0014 4.98617 12.475 3.87377 11.5174L2.50702 12.8728C2.4664 12.9131 2.41817 12.9451 2.36507 12.9669C2.31198 12.9887 2.25506 13 2.19758 13C2.14009 13 2.08316 12.9889 2.03004 12.9671C1.97691 12.9454 1.92863 12.9135 1.88796 12.8732C1.84728 12.833 1.815 12.7852 1.79296 12.7326C1.77093 12.6801 1.75957 12.6237 1.75953 12.5668C1.75948 12.5098 1.77077 12.4534 1.79273 12.4008C1.81469 12.3482 1.8469 12.3004 1.88752 12.2601L3.25514 10.9056C2.28864 9.80369 1.75746 8.39258 1.75977 6.93297C1.75977 6.26654 1.86827 5.62611 2.06864 5.02641ZM1.75977 2.76192C1.75977 3.33563 2.01439 3.84953 2.41602 4.19705C3.00272 3.05051 3.94052 2.11713 5.09527 1.53045C4.91854 1.32255 4.69807 1.15542 4.44928 1.04075C4.2005 0.926081 3.92942 0.866652 3.65502 0.866622C3.40491 0.867757 3.15747 0.917688 2.92685 1.01356C2.69623 1.10943 2.48694 1.24937 2.31093 1.42538C2.13493 1.60139 1.99567 1.81001 1.9011 2.03934C1.80653 2.26867 1.7585 2.51421 1.75977 2.76192ZM13.3465 4.18318C13.7525 3.8374 14.0098 3.32523 14.0098 2.75152C14.0101 2.50426 13.9613 2.25936 13.866 2.0308C13.7708 1.80224 13.631 1.59451 13.4547 1.41947C13.2783 1.24443 13.0689 1.10551 12.8384 1.01065C12.6078 0.91579 12.3607 0.866849 12.111 0.866622C11.5335 0.866622 11.0164 1.12228 10.6673 1.52785C11.8198 2.11211 12.7567 3.04164 13.3448 4.18405L13.3465 4.18318ZM2.63477 6.93297C2.63477 8.31203 3.18789 9.6346 4.17246 10.6097C5.15702 11.5849 6.49238 12.1327 7.88477 12.1327C9.27715 12.1327 10.6125 11.5849 11.5971 10.6097C12.5816 9.6346 13.1348 8.31203 13.1348 6.93297C13.1348 5.55392 12.5816 4.23135 11.5971 3.25621C10.6125 2.28107 9.27715 1.73324 7.88477 1.73324C6.49238 1.73324 5.15702 2.28107 4.17246 3.25621C3.18789 4.23135 2.63477 5.55392 2.63477 6.93297Z" fill="#442D71"/>
</svg>
