<svg width="45" height="48" viewBox="0 0 45 48" fill="none" xmlns="http://www.w3.org/2000/svg">
<path fill-rule="evenodd" clip-rule="evenodd" d="M2.78768 0.218549C2.55069 0.613978 2.70465 3.06004 3.07873 4.8429C4.02279 9.34171 6.18729 12.8643 9.12178 14.6774C10.7114 15.6596 12.0445 16.0193 14.5778 16.1496C16.6264 16.2551 16.7943 16.2898 16.7943 16.6076C16.7943 17.3064 14.3065 17.6411 11.4418 17.3278L10.1813 17.19L10.2677 17.9576C10.3618 18.7926 11.1801 20.3515 12.2716 21.7753C14.1531 24.23 17.9557 26.185 21.9093 26.73C22.6595 26.8334 23.5228 26.9996 23.8274 27.0991C24.9575 27.4681 24.2634 28.1931 22.6005 28.3805C19.5375 28.7256 17.3759 31.1158 16.6096 35.0047C16.3621 36.2618 16.338 36.9976 16.4497 39.9121C16.5218 41.7978 16.5784 43.5363 16.5754 43.7755C16.5619 44.8448 14.5785 45.7605 12.276 45.7605C9.99372 45.7605 8.15504 44.9456 7.25838 43.5365C6.43009 42.2351 6.81814 41.2104 9.30012 38.144C11.8121 35.0409 12.6124 33.5877 12.6153 32.1248C12.6172 31.2097 12.358 30.5962 11.2628 28.9231C10.5792 27.879 10.5721 27.8513 10.5715 26.2418L10.571 24.6154H9.29944H8.02785L7.97806 23.2527L7.92827 21.8901L6.60689 21.8388L5.28552 21.7874V20.4761V19.1648H3.92151H2.55751V17.7582V16.3517H1.27875H0V17.7582V19.1648H1.27551H2.55103L2.59689 23.1648L2.64276 27.1648L3.96414 27.2162L5.28552 27.2675V28.6667V30.0659H7.6715H10.0573L10.57 30.7956C11.1165 31.5734 11.2188 32.3105 10.9003 33.1754C10.703 33.7109 9.68392 35.1269 7.50663 37.8901C6.74466 38.8571 5.88568 40.14 5.59787 40.7407C5.13957 41.697 5.08313 41.9738 5.14434 42.9639C5.29353 45.3793 7.16034 46.8673 10.9659 47.6037C12.333 47.8683 13.7875 47.9072 22.4208 47.9094L32.3098 47.9121L32.3617 47.2701C32.4321 46.4 31.9209 45.3271 31.3348 45.1149C31.0244 45.0024 30.3361 45.0226 29.254 45.1759C26.729 45.5334 25.992 45.252 26.0254 43.9437C26.0605 42.5574 27.686 40.6018 29.6882 39.5374C31.7175 38.4584 33.645 38.8185 35.1216 40.5524C35.9471 41.5221 36.6573 43.1875 36.6574 44.1544C36.6576 45.062 36.5314 45.2195 35.5494 45.5378C35.1743 45.6593 34.7374 45.8757 34.5787 46.0185C34.2322 46.33 34.0328 47.1525 34.1842 47.6445C34.2907 47.9909 34.4244 48 39.3832 48C42.1825 48 44.5941 47.952 44.7424 47.8933C45.1395 47.7361 45.0713 46.992 44.5806 46.1285C43.9583 45.0337 43.7138 44.9465 42.1818 45.2728C40.7546 45.5768 39.8944 45.4935 39.4702 45.0103C39.1028 44.5915 38.8847 42.2229 38.8787 38.5851L38.8741 35.7637L39.5711 35.0687C40.84 33.8033 41.7726 31.3642 41.7726 29.3113C41.7726 28.5839 41.5924 27.741 41.1627 26.4577C40.8272 25.4558 40.5779 24.4534 40.6086 24.2302C40.6581 23.8702 40.746 23.8295 41.3851 23.8709C42.027 23.9124 42.1174 23.8699 42.2118 23.4822C42.3518 22.9071 41.8548 20.4211 41.3372 19.1075C40.6598 17.3885 39.9055 16.4898 37.981 15.1091C36.6776 14.1741 36.3166 13.7475 36.3166 13.1422C36.3166 11.9814 37.1413 11.4286 38.8729 11.4286C39.8415 11.4286 39.9169 11.3987 40.0879 10.9451C40.3677 10.2034 40.1808 8.11921 39.7583 7.26945C39.3565 6.46083 38.7019 5.85248 38.0532 5.68457C37.8196 5.62426 37.0839 5.70602 36.4184 5.86655C34.8989 6.23297 33.8164 6.23402 32.9712 5.86989C31.7839 5.35824 30.7614 5.60932 27.8768 7.12035L25.3193 8.46013L23.5291 8.5818C21.865 8.69468 21.7427 8.72809 21.7954 9.05495C21.932 9.90365 23.5417 11.1495 25.3144 11.7785C25.8593 11.9719 26.4013 12.2122 26.5186 12.3126C26.7757 12.5327 26.6576 16.8324 26.3846 17.1868C25.9203 17.7895 25.2233 17.3006 23.4824 15.1511C22.8061 14.3161 22.022 13.412 21.74 13.142C20.8764 12.3149 19.1191 11.3145 16.7541 10.3035C11.9357 8.24422 9.76133 6.72686 5.71842 2.60237C4.31554 1.17099 3.11163 0 3.04309 0C2.97472 0 2.85963 0.0984615 2.78768 0.218549Z" fill="#7B4BD2" fill-opacity="0.8"/>
</svg>
