<svg width="22" height="21" viewBox="0 0 22 21" fill="none" xmlns="http://www.w3.org/2000/svg">
<g filter="url(#filter0_d_141_2298)">
<path d="M10.9243 12.2709C10.0367 12.2709 9.18551 11.9183 8.5579 11.2907C7.93029 10.6631 7.5777 9.8119 7.5777 8.92432C7.5777 8.03674 7.93029 7.18551 8.5579 6.5579C9.18551 5.93029 10.0367 5.5777 10.9243 5.5777C11.8119 5.5777 12.6631 5.93029 13.2907 6.5579C13.9183 7.18551 14.2709 8.03674 14.2709 8.92432C14.2709 9.8119 13.9183 10.6631 13.2907 11.2907C12.6631 11.9183 11.8119 12.2709 10.9243 12.2709ZM10.9243 13.3865C12.1078 13.3865 13.2427 12.9164 14.0795 12.0795C14.9164 11.2427 15.3865 10.1078 15.3865 8.92432C15.3865 7.74088 14.9164 6.60591 14.0795 5.76909C13.2427 4.93228 12.1078 4.46216 10.9243 4.46216C9.74088 4.46216 8.60591 4.93228 7.76909 5.76909C6.93228 6.60591 6.46216 7.74088 6.46216 8.92432C6.46216 10.1078 6.93228 11.2427 7.76909 12.0795C8.60591 12.9164 9.74088 13.3865 10.9243 13.3865ZM10.9243 0C11.0722 0 11.2141 0.0587649 11.3187 0.163367C11.4233 0.267969 11.4821 0.40984 11.4821 0.55777V2.78885C11.4821 2.93678 11.4233 3.07865 11.3187 3.18325C11.2141 3.28785 11.0722 3.34662 10.9243 3.34662C10.7764 3.34662 10.6345 3.28785 10.5299 3.18325C10.4253 3.07865 10.3665 2.93678 10.3665 2.78885V0.55777C10.3665 0.40984 10.4253 0.267969 10.5299 0.163367C10.6345 0.0587649 10.7764 0 10.9243 0V0ZM10.9243 14.502C11.0722 14.502 11.2141 14.5608 11.3187 14.6654C11.4233 14.77 11.4821 14.9119 11.4821 15.0598V17.2909C11.4821 17.4388 11.4233 17.5807 11.3187 17.6853C11.2141 17.7899 11.0722 17.8486 10.9243 17.8486C10.7764 17.8486 10.6345 17.7899 10.5299 17.6853C10.4253 17.5807 10.3665 17.4388 10.3665 17.2909V15.0598C10.3665 14.9119 10.4253 14.77 10.5299 14.6654C10.6345 14.5608 10.7764 14.502 10.9243 14.502ZM19.8486 8.92432C19.8486 9.07225 19.7899 9.21412 19.6853 9.31872C19.5807 9.42332 19.4388 9.48209 19.2909 9.48209H17.0598C16.9119 9.48209 16.77 9.42332 16.6654 9.31872C16.5608 9.21412 16.502 9.07225 16.502 8.92432C16.502 8.77639 16.5608 8.63452 16.6654 8.52991C16.77 8.42531 16.9119 8.36655 17.0598 8.36655H19.2909C19.4388 8.36655 19.5807 8.42531 19.6853 8.52991C19.7899 8.63452 19.8486 8.77639 19.8486 8.92432ZM5.34662 8.92432C5.34662 9.07225 5.28785 9.21412 5.18325 9.31872C5.07865 9.42332 4.93678 9.48209 4.78885 9.48209H2.55777C2.40984 9.48209 2.26797 9.42332 2.16337 9.31872C2.05876 9.21412 2 9.07225 2 8.92432C2 8.77639 2.05876 8.63452 2.16337 8.52991C2.26797 8.42531 2.40984 8.36655 2.55777 8.36655H4.78885C4.93678 8.36655 5.07865 8.42531 5.18325 8.52991C5.28785 8.63452 5.34662 8.77639 5.34662 8.92432ZM17.2349 2.61371C17.3395 2.71831 17.3982 2.86015 17.3982 3.00805C17.3982 3.15595 17.3395 3.2978 17.2349 3.4024L15.6576 4.98088C15.6057 5.03267 15.5441 5.07373 15.4764 5.10173C15.4087 5.12973 15.3361 5.14411 15.2628 5.14406C15.1148 5.14396 14.9729 5.08506 14.8683 4.98033C14.8165 4.92847 14.7755 4.86692 14.7475 4.79919C14.7195 4.73146 14.7051 4.65888 14.7051 4.58559C14.7052 4.43758 14.7641 4.29567 14.8689 4.19108L16.4462 2.61371C16.5508 2.50914 16.6927 2.4504 16.8406 2.4504C16.9885 2.4504 17.1303 2.50914 17.2349 2.61371ZM6.97977 12.8689C7.08433 12.9735 7.14308 13.1153 7.14308 13.2632C7.14308 13.4111 7.08433 13.553 6.97977 13.6576L5.4024 15.2349C5.2972 15.3365 5.15631 15.3927 5.01006 15.3915C4.86381 15.3902 4.72392 15.3315 4.6205 15.2281C4.51709 15.1247 4.45843 14.9848 4.45716 14.8386C4.45589 14.6923 4.51211 14.5514 4.61371 14.4462L6.19108 12.8689C6.29568 12.7643 6.43752 12.7056 6.58543 12.7056C6.73333 12.7056 6.87517 12.7643 6.97977 12.8689ZM17.2349 15.2349C17.1303 15.3395 16.9885 15.3982 16.8406 15.3982C16.6927 15.3982 16.5508 15.3395 16.4462 15.2349L14.8689 13.6576C14.7673 13.5524 14.711 13.4115 14.7123 13.2652C14.7136 13.119 14.7722 12.9791 14.8757 12.8757C14.9791 12.7722 15.119 12.7136 15.2652 12.7123C15.4115 12.711 15.5524 12.7673 15.6576 12.8689L17.2349 14.4462C17.3395 14.5508 17.3982 14.6927 17.3982 14.8406C17.3982 14.9885 17.3395 15.1303 17.2349 15.2349ZM6.97977 4.98088C6.87517 5.08545 6.73333 5.14419 6.58543 5.14419C6.43752 5.14419 6.29568 5.08545 6.19108 4.98088L4.61371 3.4024C4.56044 3.35094 4.51794 3.2894 4.48871 3.22135C4.45948 3.1533 4.44409 3.08011 4.44345 3.00604C4.44281 2.93198 4.45692 2.85854 4.48496 2.78999C4.51301 2.72144 4.55443 2.65917 4.6068 2.6068C4.65917 2.55443 4.72144 2.51301 4.78999 2.48496C4.85854 2.45692 4.93198 2.44281 5.00604 2.44345C5.08011 2.44409 5.1533 2.45948 5.22135 2.48871C5.2894 2.51794 5.35094 2.56044 5.4024 2.61371L6.97977 4.19108C7.03171 4.24289 7.07292 4.30444 7.10104 4.37221C7.12916 4.43997 7.14363 4.51262 7.14363 4.58598C7.14363 4.65935 7.12916 4.732 7.10104 4.79976C7.07292 4.86752 7.03171 4.92907 6.97977 4.98088Z" fill="white"/>
</g>
<defs>
<filter id="filter0_d_141_2298" x="0.542969" y="0" width="20.7627" height="20.7617" filterUnits="userSpaceOnUse" color-interpolation-filters="sRGB">
<feFlood flood-opacity="0" result="BackgroundImageFix"/>
<feColorMatrix in="SourceAlpha" type="matrix" values="0 0 0 0 0 0 0 0 0 0 0 0 0 0 0 0 0 0 127 0" result="hardAlpha"/>
<feOffset dy="1.45703"/>
<feGaussianBlur stdDeviation="0.728516"/>
<feComposite in2="hardAlpha" operator="out"/>
<feColorMatrix type="matrix" values="0 0 0 0 0 0 0 0 0 0 0 0 0 0 0 0 0 0 0.25 0"/>
<feBlend mode="normal" in2="BackgroundImageFix" result="effect1_dropShadow_141_2298"/>
<feBlend mode="normal" in="SourceGraphic" in2="effect1_dropShadow_141_2298" result="shape"/>
</filter>
</defs>
</svg>
