<svg width="128" height="38" viewBox="0 0 128 38" fill="none" xmlns="http://www.w3.org/2000/svg">
<g clip-path="url(#clip0_1612_10856)">
<g filter="url(#filter0_b_1612_10856)">
<path d="M123.259 38H4.74074C2.08593 38 0 35.91 0 33.25V4.75C0 2.09 2.08593 0 4.74074 0H123.259C125.914 0 128 2.09 128 4.75V33.25C128 35.815 125.914 38 123.259 38Z" fill="#F9F9F9" fill-opacity="0.5"/>
<path d="M123.259 37.5H4.74074C2.36299 37.5 0.5 35.6348 0.5 33.25V4.75C0.5 2.36522 2.36299 0.5 4.74074 0.5H123.259C125.637 0.5 127.5 2.36522 127.5 4.75V33.25C127.5 35.5463 125.631 37.5 123.259 37.5Z" stroke="#D1D1D1"/>
</g>
<path d="M44.9414 9.68969C44.9414 10.4497 44.7518 11.1147 44.2777 11.5897C43.7088 12.1597 43.0451 12.4447 42.1918 12.4447C41.3385 12.4447 40.6748 12.1597 40.1059 11.5897C39.537 11.0197 39.2525 10.3547 39.2525 9.49969C39.2525 8.64469 39.537 7.97969 40.1059 7.40969C40.6748 6.83969 41.3385 6.55469 42.1918 6.55469C42.571 6.55469 42.9503 6.64969 43.3296 6.83969C43.7088 7.02969 43.9933 7.21969 44.1829 7.50469L43.7088 7.97969C43.3296 7.50469 42.8555 7.31469 42.1918 7.31469C41.6229 7.31469 41.054 7.50469 40.6748 7.97969C40.2007 8.35969 40.0111 8.92969 40.0111 9.59469C40.0111 10.2597 40.2007 10.8297 40.6748 11.2097C41.1488 11.5897 41.6229 11.8747 42.1918 11.8747C42.8555 11.8747 43.3296 11.6847 43.8036 11.2097C44.0881 10.9247 44.2777 10.5447 44.2777 10.0697H42.1918V9.40469H44.9414V9.68969V9.68969ZM49.3029 7.31469H46.7429V9.11969H49.1133V9.78469H46.7429V11.5897H49.3029V12.3497H45.9844V6.64969H49.3029V7.31469ZM52.4318 12.3497H51.6733V7.31469H50.0614V6.64969H54.0436V7.31469H52.4318V12.3497ZM56.7933 12.3497V6.64969H57.5518V12.3497H56.7933ZM60.7755 12.3497H60.017V7.31469H58.4051V6.64969H62.2925V7.31469H60.6807V12.3497H60.7755ZM69.7829 11.5897C69.214 12.1597 68.5503 12.4447 67.697 12.4447C66.8436 12.4447 66.1799 12.1597 65.611 11.5897C65.0422 11.0197 64.7577 10.3547 64.7577 9.49969C64.7577 8.64469 65.0422 7.97969 65.611 7.40969C66.1799 6.83969 66.8436 6.55469 67.697 6.55469C68.5503 6.55469 69.214 6.83969 69.7829 7.40969C70.3518 7.97969 70.6362 8.64469 70.6362 9.49969C70.6362 10.3547 70.3518 11.0197 69.7829 11.5897ZM66.1799 11.1147C66.5592 11.4947 67.1281 11.7797 67.697 11.7797C68.2659 11.7797 68.8347 11.5897 69.214 11.1147C69.5933 10.7347 69.8777 10.1647 69.8777 9.49969C69.8777 8.83469 69.6881 8.26469 69.214 7.88469C68.8347 7.50469 68.2659 7.21969 67.697 7.21969C67.1281 7.21969 66.5592 7.40969 66.1799 7.88469C65.8007 8.26469 65.5162 8.83469 65.5162 9.49969C65.5162 10.1647 65.7059 10.7347 66.1799 11.1147ZM71.6792 12.3497V6.64969H72.5325L75.2822 11.1147V6.64969H76.0407V12.3497H75.2822L72.3429 7.69469V12.3497H71.6792Z" fill="black" stroke="#606060" stroke-width="0.2"/>
<path d="M64.5697 20.7106C62.2941 20.7106 60.4927 22.4206 60.4927 24.7956C60.4927 27.0756 62.2941 28.8806 64.5697 28.8806C66.8453 28.8806 68.6467 27.1706 68.6467 24.7956C68.6467 22.3256 66.8453 20.7106 64.5697 20.7106ZM64.5697 27.1706C63.3371 27.1706 62.2941 26.1256 62.2941 24.7006C62.2941 23.2756 63.3371 22.2306 64.5697 22.2306C65.8023 22.2306 66.8453 23.1806 66.8453 24.7006C66.8453 26.1256 65.8023 27.1706 64.5697 27.1706ZM55.7519 20.7106C53.4764 20.7106 51.6749 22.4206 51.6749 24.7956C51.6749 27.0756 53.4764 28.8806 55.7519 28.8806C58.0275 28.8806 59.829 27.1706 59.829 24.7956C59.829 22.3256 58.0275 20.7106 55.7519 20.7106ZM55.7519 27.1706C54.5193 27.1706 53.4764 26.1256 53.4764 24.7006C53.4764 23.2756 54.5193 22.2306 55.7519 22.2306C56.9845 22.2306 58.0275 23.1806 58.0275 24.7006C58.0275 26.1256 56.9845 27.1706 55.7519 27.1706ZM45.2275 21.9456V23.6556H49.3045C49.2097 24.6056 48.8304 25.3656 48.3564 25.8406C47.7875 26.4106 46.8393 27.0756 45.2275 27.0756C42.6675 27.0756 40.7712 25.0806 40.7712 22.5156C40.7712 19.9506 42.7623 17.9556 45.2275 17.9556C46.5549 17.9556 47.5978 18.5256 48.3564 19.1906L49.589 17.9556C48.546 17.0056 47.2186 16.2456 45.3223 16.2456C41.909 16.2456 38.9697 19.0956 38.9697 22.5156C38.9697 25.9356 41.909 28.7856 45.3223 28.7856C47.2186 28.7856 48.546 28.2156 49.6838 26.9806C50.8216 25.8406 51.2008 24.2256 51.2008 22.9906C51.2008 22.6106 51.2008 22.2306 51.106 21.9456H45.2275V21.9456ZM88.2734 23.2756C87.8941 22.3256 86.946 20.7106 84.8601 20.7106C82.7741 20.7106 81.0675 22.3256 81.0675 24.7956C81.0675 27.0756 82.7741 28.8806 85.0497 28.8806C86.8512 28.8806 87.989 27.7406 88.3682 27.0756L87.0408 26.1256C86.5667 26.7906 85.9978 27.2656 85.0497 27.2656C84.1015 27.2656 83.5327 26.8856 83.0586 26.0306L88.463 23.7506L88.2734 23.2756V23.2756ZM82.7741 24.6056C82.7741 23.0856 84.0067 22.2306 84.8601 22.2306C85.5238 22.2306 86.1875 22.6106 86.3771 23.0856L82.7741 24.6056ZM78.3178 28.5006H80.1193V16.6256H78.3178V28.5006ZM75.4734 21.5656C74.9993 21.0906 74.2408 20.6156 73.2927 20.6156C71.3016 20.6156 69.4053 22.4206 69.4053 24.7006C69.4053 26.9806 71.2067 28.6906 73.2927 28.6906C74.2408 28.6906 74.9993 28.2156 75.3786 27.7406H75.4734V28.3106C75.4734 29.8306 74.6201 30.6856 73.2927 30.6856C72.2497 30.6856 71.4912 29.9256 71.3015 29.2606L69.7845 29.9256C70.2586 30.9706 71.3964 32.3006 73.3875 32.3006C75.4734 32.3006 77.1801 31.0656 77.1801 28.1206V20.9006H75.4734V21.5656V21.5656ZM73.3875 27.1706C72.1549 27.1706 71.1119 26.1256 71.1119 24.7006C71.1119 23.2756 72.1549 22.2306 73.3875 22.2306C74.6201 22.2306 75.5682 23.2756 75.5682 24.7006C75.5682 26.1256 74.6201 27.1706 73.3875 27.1706ZM96.5223 16.6256H92.2556V28.5006H94.0571V24.0356H96.5223C98.5134 24.0356 100.41 22.6106 100.41 20.3306C100.41 18.0506 98.5134 16.6256 96.5223 16.6256V16.6256ZM96.6171 22.3256H94.0571V18.2406H96.6171C97.9445 18.2406 98.703 19.3806 98.703 20.2356C98.6082 21.2806 97.8497 22.3256 96.6171 22.3256ZM107.521 20.6156C106.193 20.6156 104.866 21.1856 104.392 22.4206L106.004 23.0856C106.383 22.4206 106.952 22.2306 107.616 22.2306C108.564 22.2306 109.417 22.8006 109.512 23.7506V23.8456C109.227 23.6556 108.469 23.3706 107.71 23.3706C106.004 23.3706 104.297 24.3206 104.297 26.0306C104.297 27.6456 105.719 28.6906 107.236 28.6906C108.469 28.6906 109.038 28.1206 109.512 27.5506H109.607V28.5006H111.313V23.9406C111.124 21.8506 109.512 20.6156 107.521 20.6156V20.6156ZM107.331 27.1706C106.762 27.1706 105.909 26.8856 105.909 26.1256C105.909 25.1756 106.952 24.8906 107.805 24.8906C108.564 24.8906 108.943 25.0806 109.417 25.2706C109.227 26.4106 108.279 27.1706 107.331 27.1706V27.1706ZM117.287 20.9006L115.296 26.0306H115.201L113.115 20.9006H111.219L114.347 28.1206L112.546 32.1106H114.347L119.183 20.9006H117.287V20.9006ZM101.358 28.5006H103.159V16.6256H101.358V28.5006Z" fill="black"/>
<path d="M9.8596 7.125C9.57516 7.41 9.38553 7.885 9.38553 8.455V29.45C9.38553 30.02 9.57516 30.495 9.8596 30.78L9.95442 30.875L21.7115 19.095V18.905L9.8596 7.125ZM25.5989 23.085L21.7115 19.19V18.905L25.5989 15.01L25.6937 15.105L30.3396 17.765C31.667 18.525 31.667 19.76 30.3396 20.52L25.5989 23.085Z" fill="#BCBCBC"/>
<path fill-rule="evenodd" clip-rule="evenodd" d="M9.38553 8.455C9.38553 7.885 9.57516 7.41 9.8596 7.125L21.7115 18.905V19.095L9.95442 30.875L9.8596 30.78C9.57516 30.495 9.38553 30.02 9.38553 29.45V8.455Z" fill="black"/>
<path fill-rule="evenodd" clip-rule="evenodd" d="M21.7104 19.0003L25.6927 22.9903L11.8497 30.9703C10.9964 31.3503 10.3327 31.3503 9.85858 30.8753L21.7104 19.0003Z" fill="#838383"/>
<path d="M25.6927 15.0103L11.8497 7.12528C10.9964 6.65028 10.3327 6.74528 9.85858 7.22028L21.7104 19.0003L25.6927 15.0103Z" fill="#838383"/>
<path fill-rule="evenodd" clip-rule="evenodd" d="M21.7104 19.0003L25.6927 22.9903L11.8497 30.9703C10.9964 31.3503 10.3327 31.3503 9.85858 30.8753L21.7104 19.0003Z" fill="#00FF75"/>
<path fill-rule="evenodd" clip-rule="evenodd" d="M21.7104 19.0003L25.6927 22.9903L11.8497 30.9703C10.9964 31.3503 10.3327 31.3503 9.85858 30.8753L21.7104 19.0003Z" fill="#838383"/>
<path opacity="0.25" d="M11.8518 7.21937L30.3407 17.7644C30.9096 18.1444 31.2889 18.5244 31.2889 18.9994C31.2889 18.5244 31.0044 18.0494 30.3407 17.6694L11.8518 7.12437C10.5244 6.36437 9.48148 7.02937 9.48148 8.54937V8.64437C9.48148 7.12437 10.5244 6.45937 11.8518 7.21937Z" fill="#4F2A93"/>
</g>
<defs>
<filter id="filter0_b_1612_10856" x="-4" y="-4" width="136" height="46" filterUnits="userSpaceOnUse" color-interpolation-filters="sRGB">
<feFlood flood-opacity="0" result="BackgroundImageFix"/>
<feGaussianBlur in="BackgroundImage" stdDeviation="2"/>
<feComposite in2="SourceAlpha" operator="in" result="effect1_backgroundBlur_1612_10856"/>
<feBlend mode="normal" in="SourceGraphic" in2="effect1_backgroundBlur_1612_10856" result="shape"/>
</filter>
<clipPath id="clip0_1612_10856">
<rect width="128" height="38" rx="5" fill="white"/>
</clipPath>
</defs>
</svg>
