<svg width="128" height="38" viewBox="0 0 128 38" fill="none" xmlns="http://www.w3.org/2000/svg">
<g filter="url(#filter0_b_1612_3715)">
<path d="M128 34.1909C128 34.6914 127.905 35.1871 127.719 35.6495C127.534 36.1119 127.262 36.532 126.92 36.8857C126.578 37.2395 126.171 37.52 125.724 37.7112C125.277 37.9024 124.798 38.0005 124.314 38H3.69074C2.71308 38.0011 1.77504 37.6004 1.08292 36.886C0.390804 36.1717 0.00127412 35.2022 0 34.1909V3.81412C0.00127354 2.80227 0.390649 1.8323 1.08263 1.11718C1.77461 0.402064 2.71264 0.000262646 3.69074 0H124.313C124.797 -1.70356e-08 125.277 0.0986624 125.724 0.290352C126.171 0.482042 126.578 0.763004 126.92 1.11719C127.262 1.47138 127.534 1.89185 127.719 2.3546C127.904 2.81734 127.999 3.31329 127.999 3.81412L128 34.1909Z" fill="#F9F9F9" fill-opacity="0.5"/>
<path d="M124.315 37.5H124.314H3.69074H3.6902C2.8507 37.5009 2.04167 37.157 1.44201 36.5381C0.841868 35.9187 0.50119 35.0746 0.5 34.1905V3.81445C0.50119 2.92982 0.841796 2.08509 1.44195 1.46487C2.04158 0.845195 2.85073 0.500262 3.69074 0.5C3.69078 0.5 3.69083 0.5 3.69087 0.5L124.313 0.5C124.729 0.5 125.142 0.584767 125.527 0.749922C125.912 0.915095 126.264 1.15767 126.56 1.46465C126.857 1.77167 127.093 2.13705 127.255 2.54036C127.416 2.9437 127.499 3.37653 127.499 3.814L127.5 34.1909C127.5 34.628 127.417 35.0605 127.255 35.4635C127.094 35.8664 126.858 36.2314 126.561 36.538C126.264 36.8446 125.913 37.0867 125.528 37.2514C125.143 37.4161 124.73 37.5005 124.315 37.5Z" stroke="#D1D1D1"/>
</g>
<path d="M31.9493 18.7624C31.9243 15.9789 34.2285 14.6247 34.3338 14.5616C33.0289 12.659 31.0063 12.3991 30.2955 12.3784C28.5967 12.1996 26.9489 13.3949 26.0835 13.3949C25.2009 13.3949 23.8683 12.3956 22.4321 12.425C20.5839 12.4535 18.8549 13.5235 17.9066 15.1852C15.9496 18.5732 17.4092 23.5521 19.2841 26.2907C20.222 27.6319 21.318 29.1295 22.7525 29.0768C24.1559 29.0189 24.6801 28.182 26.3737 28.182C28.0518 28.182 28.544 29.0768 30.007 29.0431C31.5132 29.0189 32.4615 27.6958 33.3666 26.3425C34.4504 24.8052 34.8857 23.2913 34.903 23.2135C34.8676 23.2015 31.9778 22.0986 31.9493 18.7624ZM29.1857 10.5768C29.9405 9.63286 30.457 8.34864 30.3136 7.04541C29.2211 7.09377 27.8548 7.80109 27.0681 8.72432C26.372 9.53786 25.7502 10.8713 25.9108 12.1253C27.138 12.2169 28.3981 11.5061 29.1857 10.5768ZM52.2595 28.8842H50.2982L49.2238 25.5082H45.4894L44.466 28.8842H42.5565L46.2563 17.3909H48.5415L52.2595 28.8842ZM48.8999 24.0919L47.9283 21.0907C47.8256 20.7841 47.633 20.0621 47.3488 18.9256H47.3143C47.142 19.6497 46.9601 20.3715 46.7685 21.0907L45.8142 24.0919H48.8999ZM61.7742 24.6385C61.7742 26.048 61.3933 27.1621 60.6316 27.98C59.9493 28.708 59.1021 29.0716 58.0908 29.0716C56.9991 29.0716 56.2149 28.6795 55.7373 27.8953H55.7028V32.261H53.8615V23.325C53.8615 22.4389 53.8382 21.5295 53.7933 20.5967H55.4126L55.5154 21.9103H55.5499C56.164 20.9206 57.0958 20.4266 58.3464 20.4266C59.324 20.4266 60.1402 20.8126 60.7931 21.5856C61.4477 22.3594 61.7742 23.3768 61.7742 24.6385ZM59.8983 24.7059C59.8983 23.8993 59.717 23.2343 59.3525 22.7109C58.9544 22.1651 58.4198 21.8922 57.7496 21.8922C57.2953 21.8922 56.8825 22.0442 56.5138 22.3439C56.1441 22.6461 55.9023 23.0408 55.7892 23.5296C55.7322 23.7576 55.7037 23.9442 55.7037 24.091V25.4728C55.7037 26.0756 55.8885 26.5843 56.2581 26.9997C56.6278 27.4151 57.1079 27.6224 57.6987 27.6224C58.3922 27.6224 58.9319 27.3547 59.318 26.821C59.7049 26.2864 59.8983 25.5816 59.8983 24.7059ZM71.3061 24.6385C71.3061 26.048 70.9252 27.1621 70.1627 27.98C69.4812 28.708 68.634 29.0716 67.6227 29.0716C66.5311 29.0716 65.7469 28.6795 65.2702 27.8953H65.2356V32.261H63.3943V23.325C63.3943 22.4389 63.371 21.5295 63.3261 20.5967H64.9454L65.0482 21.9103H65.0827C65.6959 20.9206 66.6278 20.4266 67.8792 20.4266C68.856 20.4266 69.6721 20.8126 70.3268 21.5856C70.9788 22.3594 71.3061 23.3768 71.3061 24.6385ZM69.4303 24.7059C69.4303 23.8993 69.2481 23.2343 68.8836 22.7109C68.4855 22.1651 67.9526 21.8922 67.2816 21.8922C66.8289 21.892 66.3908 22.052 66.0448 22.3439C65.6752 22.6461 65.4342 23.0408 65.3211 23.5296C65.265 23.7576 65.2356 23.9442 65.2356 24.091V25.4728C65.2356 26.0756 65.4204 26.5843 65.7883 26.9997C66.158 27.4143 66.6382 27.6224 67.2306 27.6224C67.9241 27.6224 68.4639 27.3547 68.8499 26.821C69.2368 26.2864 69.4303 25.5816 69.4303 24.7059ZM81.9634 25.6611C81.9634 26.6387 81.624 27.4341 80.9426 28.0482C80.1938 28.7192 79.1514 29.0543 77.8119 29.0543C76.5752 29.0543 75.5837 28.816 74.8332 28.3384L75.2598 26.8037C76.0682 27.2925 76.9552 27.5378 77.9216 27.5378C78.6151 27.5378 79.1548 27.3806 79.5426 27.068C79.9287 26.7553 80.1213 26.3356 80.1213 25.8122C80.1213 25.3459 79.9623 24.9529 79.6437 24.6342C79.3267 24.3155 78.7973 24.0193 78.058 23.7455C76.0457 22.995 75.0405 21.8956 75.0405 20.4499C75.0405 19.5051 75.3928 18.7304 76.0984 18.1276C76.8014 17.5239 77.7393 17.2225 78.9122 17.2225C79.958 17.2225 80.8268 17.4047 81.5203 17.7683L81.06 19.2693C80.4123 18.917 79.6799 18.7408 78.8603 18.7408C78.2126 18.7408 77.7065 18.9005 77.3438 19.2184C77.1967 19.3485 77.0794 19.5088 77 19.6884C76.9205 19.868 76.8808 20.0627 76.8835 20.259C76.8835 20.7133 77.0588 21.089 77.4112 21.3844C77.7178 21.6573 78.2748 21.9526 79.0832 22.2713C80.072 22.6695 80.7983 23.135 81.2656 23.6687C81.7311 24.2007 81.9634 24.8665 81.9634 25.6611ZM88.0512 21.9785H86.0216V26.0022C86.0216 27.0256 86.3792 27.5369 87.096 27.5369C87.425 27.5369 87.6979 27.5084 87.9138 27.4514L87.9648 28.8496C87.6021 28.9852 87.1245 29.0535 86.5329 29.0535C85.8057 29.0535 85.2374 28.8315 84.8272 28.3885C84.4187 27.9445 84.2132 27.2001 84.2132 26.1542V21.9768H83.0041V20.595H84.2132V19.0776L86.0216 18.5318V20.595H88.0512V21.9785ZM97.2083 24.6722C97.2083 25.9461 96.8438 26.992 96.1167 27.8098C95.3541 28.6519 94.3419 29.0716 93.0801 29.0716C91.8641 29.0716 90.896 28.6683 90.174 27.8616C89.452 27.055 89.091 26.0368 89.091 24.8095C89.091 23.5253 89.4623 22.4734 90.2077 21.6555C90.9512 20.8368 91.9548 20.4275 93.2166 20.4275C94.4326 20.4275 95.4111 20.8308 96.1495 21.6383C96.8559 22.4216 97.2083 23.4329 97.2083 24.6722ZM95.2979 24.7318C95.2979 23.9675 95.1347 23.312 94.8039 22.7653C94.4179 22.1038 93.866 21.7739 93.1509 21.7739C92.4108 21.7739 91.8486 22.1046 91.4625 22.7653C91.1318 23.3129 90.9685 23.9787 90.9685 24.7664C90.9685 25.5307 91.1318 26.1862 91.4625 26.732C91.8607 27.3935 92.4168 27.7235 93.1345 27.7235C93.8375 27.7235 94.3894 27.3866 94.7875 26.7147C95.1269 26.1577 95.2979 25.4953 95.2979 24.7318ZM103.193 22.216C103.002 22.1814 102.808 22.1644 102.613 22.1651C101.965 22.1651 101.464 22.4095 101.112 22.8992C100.805 23.331 100.652 23.8768 100.652 24.5358V28.8842H98.8112L98.8285 23.2066C98.8285 22.2515 98.8052 21.3818 98.7594 20.5976H100.363L100.431 22.1832H100.481C100.676 21.6383 100.982 21.1995 101.402 20.8705C101.786 20.583 102.253 20.4273 102.733 20.4266C102.903 20.4266 103.057 20.4387 103.193 20.4603V22.216ZM111.428 24.3484C111.433 24.6283 111.41 24.908 111.361 25.1835H105.837C105.858 26.0022 106.125 26.6284 106.638 27.0602C107.104 27.4462 107.706 27.6397 108.445 27.6397C109.263 27.6397 110.009 27.5093 110.68 27.2476L110.969 28.5258C110.184 28.8678 109.259 29.0379 108.19 29.0379C106.905 29.0379 105.896 28.6596 105.162 27.904C104.43 27.1483 104.063 26.1335 104.063 24.8605C104.063 23.6108 104.404 22.5701 105.087 21.7402C105.802 20.8541 106.769 20.411 107.985 20.411C109.179 20.411 110.083 20.8541 110.697 21.7402C111.184 22.444 111.428 23.3146 111.428 24.3484ZM109.672 23.8708C109.684 23.325 109.564 22.8534 109.315 22.4553C108.996 21.9431 108.506 21.6875 107.847 21.6875C107.245 21.6875 106.756 21.9371 106.382 22.438C106.075 22.8361 105.893 23.3137 105.837 23.8699L109.672 23.8708ZM48.2911 10.3203C48.2911 11.3368 47.9862 12.102 47.3773 12.6159C46.8134 13.09 46.0119 13.3275 44.9738 13.3275C44.4591 13.3275 44.0187 13.305 43.6499 13.2601V7.70609C44.1309 7.62836 44.6491 7.58864 45.2088 7.58864C46.1976 7.58864 46.9429 7.80368 47.4456 8.23377C48.0087 8.72 48.2911 9.41523 48.2911 10.3203ZM47.3368 10.3454C47.3368 9.68641 47.1623 9.18118 46.8134 8.82882C46.4645 8.47732 45.9549 8.30114 45.2839 8.30114C44.9989 8.30114 44.7562 8.32014 44.555 8.35986V12.5822C44.6664 12.5995 44.8702 12.6072 45.1664 12.6072C45.8591 12.6072 46.3937 12.4146 46.7702 12.0295C47.1468 11.6443 47.3368 11.0829 47.3368 10.3454ZM53.3511 11.2081C53.3511 11.8343 53.1723 12.3473 52.8148 12.7497C52.44 13.1634 51.9434 13.3698 51.3233 13.3698C50.7257 13.3698 50.2498 13.172 49.8948 12.7748C49.5408 12.3784 49.3637 11.8783 49.3637 11.2755C49.3637 10.645 49.5459 10.1277 49.9121 9.72614C50.2783 9.32455 50.7706 9.12332 51.3907 9.12332C51.9883 9.12332 52.4685 9.32109 52.8321 9.7175C53.1775 10.1027 53.3511 10.6001 53.3511 11.2081ZM52.4123 11.2375C52.4123 10.8618 52.3312 10.5397 52.1697 10.2711C51.9797 9.94636 51.7093 9.784 51.3578 9.784C50.9943 9.784 50.7179 9.94636 50.5279 10.2711C50.3655 10.5397 50.2852 10.867 50.2852 11.2539C50.2852 11.6296 50.3664 11.9517 50.5279 12.2203C50.7239 12.545 50.9968 12.7074 51.3492 12.7074C51.6947 12.7074 51.9658 12.5425 52.161 12.2117C52.3286 11.9379 52.4123 11.6132 52.4123 11.2375ZM60.1358 9.20623L58.862 13.2774H58.0329L57.5052 11.5095C57.3737 11.077 57.2644 10.638 57.1779 10.1942H57.1615C57.0834 10.6398 56.974 11.0793 56.8342 11.5095L56.2737 13.2774H55.4351L54.2372 9.20623H55.1673L55.6277 11.1416C55.7391 11.5994 55.8306 12.0355 55.904 12.4483H55.9204C55.9878 12.108 56.0992 11.6745 56.2564 11.1503L56.8342 9.20709H57.5717L58.1253 11.1088C58.2592 11.5726 58.368 12.0191 58.4517 12.4492H58.4768C58.5381 12.0303 58.6305 11.5838 58.7532 11.1088L59.2472 9.20709L60.1358 9.20623ZM64.828 13.2774H63.9229V10.9456C63.9229 10.227 63.65 9.86777 63.1024 9.86777C62.9781 9.86412 62.8546 9.88891 62.7413 9.94025C62.628 9.99159 62.5279 10.0681 62.4487 10.164C62.2829 10.3583 62.1935 10.6064 62.1973 10.8618V13.2765H61.2922V10.3695C61.2922 10.012 61.281 9.62423 61.2594 9.2045H62.0548L62.0972 9.841H62.1222C62.2276 9.64323 62.3848 9.48 62.5912 9.34959C62.8364 9.19759 63.1111 9.12073 63.4116 9.12073C63.7916 9.12073 64.1077 9.24336 64.359 9.4895C64.6717 9.79091 64.828 10.2409 64.828 10.8385V13.2774ZM67.3239 13.2774H66.4197V7.33818H67.3239V13.2774ZM72.6525 11.2081C72.6525 11.8343 72.4737 12.3473 72.1162 12.7497C71.7414 13.1634 71.2439 13.3698 70.6247 13.3698C70.0262 13.3698 69.5503 13.172 69.1962 12.7748C68.8422 12.3784 68.6651 11.8783 68.6651 11.2755C68.6651 10.645 68.8473 10.1277 69.2135 9.72614C69.5797 9.32455 70.072 9.12332 70.6912 9.12332C71.2897 9.12332 71.769 9.32109 72.1335 9.7175C72.4789 10.1027 72.6525 10.6001 72.6525 11.2081ZM71.7129 11.2375C71.7129 10.8618 71.6317 10.5397 71.4702 10.2711C71.2811 9.94636 71.0099 9.784 70.6592 9.784C70.2948 9.784 70.0184 9.94636 69.8293 10.2711C69.6669 10.5397 69.5866 10.867 69.5866 11.2539C69.5866 11.6296 69.6678 11.9517 69.8293 12.2203C70.0253 12.545 70.2983 12.7074 70.6506 12.7074C70.9961 12.7074 71.2664 12.5425 71.4616 12.2117C71.63 11.9379 71.7129 11.6132 71.7129 11.2375ZM77.0329 13.2774H76.2202L76.1528 12.8085H76.1278C75.8497 13.1824 75.4533 13.3698 74.9386 13.3698C74.5543 13.3698 74.2433 13.2463 74.0093 13.001C73.9042 12.8907 73.8219 12.7606 73.7672 12.6183C73.7125 12.476 73.6865 12.3243 73.6906 12.172C73.6906 11.6745 73.8979 11.2954 74.315 11.0328C74.7313 10.7703 75.3168 10.6416 76.0708 10.6476V10.5716C76.0708 10.0353 75.7893 9.76759 75.2253 9.76759C74.8237 9.76759 74.4696 9.86864 74.1639 10.069L73.9799 9.47482C74.3582 9.24077 74.8254 9.12332 75.3764 9.12332C76.4404 9.12332 76.9742 9.68468 76.9742 10.8074V12.3067C76.9742 12.7135 76.994 13.0373 77.0329 13.2774ZM76.0933 11.8783V11.2505C75.0949 11.2332 74.5957 11.507 74.5957 12.0709C74.5957 12.2834 74.6527 12.4423 74.7693 12.5485C74.8908 12.6562 75.0492 12.7131 75.2115 12.7074C75.4101 12.7074 75.5958 12.6444 75.7651 12.5191C75.8678 12.4471 75.9513 12.351 76.0085 12.2394C76.0657 12.1277 76.0948 12.0038 76.0933 11.8783ZM82.1758 13.2774H81.3727L81.3303 12.6236H81.3053C81.0488 13.1211 80.6118 13.3698 79.9978 13.3698C79.5072 13.3698 79.0987 13.1772 78.7748 12.792C78.451 12.4069 78.2895 11.9068 78.2895 11.2928C78.2895 10.6338 78.4648 10.1001 78.8172 9.69246C79.1583 9.31246 79.5763 9.12246 80.0737 9.12246C80.6204 9.12246 81.003 9.30641 81.2207 9.67518H81.2379V7.33818H82.1439V12.1806C82.1439 12.577 82.1543 12.9423 82.1758 13.2774ZM81.2379 11.5605V10.8817C81.2464 10.7251 81.2191 10.5687 81.158 10.4243C81.097 10.2798 81.0038 10.1513 80.8856 10.0483C80.7186 9.90118 80.5026 9.82198 80.2802 9.82632C79.9425 9.82632 79.6782 9.96018 79.4839 10.2288C79.2913 10.4974 79.1937 10.8402 79.1937 11.2591C79.1937 11.6615 79.2861 11.988 79.4718 12.2393C79.6678 12.507 79.9321 12.6409 80.2629 12.6409C80.56 12.6409 80.7975 12.5295 80.978 12.3058C81.1524 12.0994 81.2379 11.8507 81.2379 11.5605ZM89.9166 11.2081C89.9166 11.8343 89.7378 12.3473 89.3803 12.7497C89.0055 13.1634 88.5097 13.3698 87.8888 13.3698C87.292 13.3698 86.8162 13.172 86.4603 12.7748C86.1063 12.3784 85.9292 11.8783 85.9292 11.2755C85.9292 10.645 86.1114 10.1277 86.4776 9.72614C86.8438 9.32455 87.3361 9.12332 87.957 9.12332C88.5538 9.12332 89.0348 9.32109 89.3976 9.7175C89.743 10.1027 89.9166 10.6001 89.9166 11.2081ZM88.9787 11.2375C88.9787 10.8618 88.8975 10.5397 88.736 10.2711C88.5452 9.94636 88.2757 9.784 87.9233 9.784C87.5606 9.784 87.2842 9.94636 87.0934 10.2711C86.931 10.5397 86.8507 10.867 86.8507 11.2539C86.8507 11.6296 86.9319 11.9517 87.0934 12.2203C87.2894 12.545 87.5623 12.7074 87.9147 12.7074C88.2602 12.7074 88.5322 12.5425 88.7274 12.2117C88.8941 11.9379 88.9787 11.6132 88.9787 11.2375ZM94.7832 13.2774H93.879V10.9456C93.879 10.227 93.6061 9.86777 93.0577 9.86777C92.9334 9.864 92.81 9.88873 92.6968 9.94008C92.5836 9.99143 92.4837 10.068 92.4047 10.164C92.2386 10.3581 92.1492 10.6063 92.1534 10.8618V13.2765H91.2475V10.3695C91.2475 10.012 91.2371 9.62423 91.2155 9.2045H92.0101L92.0524 9.841H92.0774C92.1883 9.63913 92.3499 9.46973 92.5464 9.34959C92.7925 9.19759 93.0663 9.12073 93.3677 9.12073C93.7468 9.12073 94.0629 9.24336 94.3142 9.4895C94.6277 9.79091 94.7832 10.2409 94.7832 10.8385V13.2774ZM100.874 9.88418H99.8778V11.8619C99.8778 12.3645 100.055 12.6159 100.405 12.6159C100.568 12.6159 100.703 12.602 100.809 12.5735L100.832 13.2601C100.653 13.3275 100.418 13.3612 100.129 13.3612C99.7716 13.3612 99.4935 13.2524 99.2922 13.0347C99.0902 12.8171 98.99 12.4509 98.99 11.937V9.88418H98.3949V9.20623H98.99V8.46005L99.8769 8.19232V9.20536H100.874L100.874 9.88418ZM105.666 13.2774H104.76V10.9629C104.76 10.2331 104.487 9.86777 103.94 9.86777C103.521 9.86777 103.234 10.0794 103.077 10.5025C103.047 10.6085 103.033 10.7181 103.034 10.8281V13.2765H102.13V7.33818H103.034V9.79177H103.052C103.337 9.34527 103.745 9.12246 104.275 9.12246C104.649 9.12246 104.959 9.24509 105.206 9.49123C105.512 9.79782 105.666 10.2538 105.666 10.8566V13.2774ZM110.608 11.0492C110.608 11.2116 110.596 11.348 110.575 11.4595H107.86C107.872 11.8619 108.002 12.1685 108.253 12.381C108.483 12.571 108.779 12.666 109.142 12.666C109.544 12.666 109.91 12.602 110.24 12.4734L110.381 13.1021C109.995 13.2696 109.541 13.3534 109.015 13.3534C108.385 13.3534 107.888 13.1677 107.529 12.7964C107.168 12.425 106.989 11.9267 106.989 11.3014C106.989 10.6874 107.156 10.1761 107.492 9.76846C107.842 9.33318 108.316 9.11555 108.915 9.11555C109.5 9.11555 109.945 9.33318 110.246 9.76846C110.488 10.1139 110.608 10.5414 110.608 11.0492ZM109.745 10.8152C109.757 10.5711 109.696 10.3289 109.57 10.12C109.412 9.86864 109.173 9.74255 108.849 9.74255C108.708 9.74014 108.569 9.77253 108.443 9.83685C108.317 9.90116 108.21 9.99543 108.129 10.1113C107.975 10.3162 107.882 10.5601 107.86 10.8152H109.745Z" fill="black"/>
<defs>
<filter id="filter0_b_1612_3715" x="-4" y="-4" width="136" height="46" filterUnits="userSpaceOnUse" color-interpolation-filters="sRGB">
<feFlood flood-opacity="0" result="BackgroundImageFix"/>
<feGaussianBlur in="BackgroundImage" stdDeviation="2"/>
<feComposite in2="SourceAlpha" operator="in" result="effect1_backgroundBlur_1612_3715"/>
<feBlend mode="normal" in="SourceGraphic" in2="effect1_backgroundBlur_1612_3715" result="shape"/>
</filter>
</defs>
</svg>
