<svg width="144" height="32" viewBox="0 0 144 32" fill="none" xmlns="http://www.w3.org/2000/svg">
<path fill-rule="evenodd" clip-rule="evenodd" d="M25.6335 30.2767C24.6843 30.1731 24.6741 29.7448 24.6843 24.036C24.6843 24.036 24.5896 23.6767 25.135 23.366C25.6791 23.0552 27.3366 20.2819 26.318 17.9161C25.3004 15.5492 26.0351 15.669 26.4605 15.9084C26.8872 16.1478 27.0926 15.8451 26.8392 14.5466C26.318 11.87 25.5046 10.9627 23.587 9.75521C22.3276 8.96084 22.7839 7.52179 24.5749 7.62777C25.4486 7.67958 25.4486 7.68076 25.5582 6.98883C25.7316 5.89862 25.3871 4.03597 24.0444 3.77927C23.1204 3.60191 21.9717 4.59999 20.6051 3.90468C19.2383 3.20937 16.9796 4.94544 16.0557 5.34829C15.1316 5.75128 14.3684 5.75585 13.3145 5.72935C12.2592 5.70404 13.8734 7.49192 15.4887 7.89477C16.8758 8.24021 16.3364 8.48881 16.2575 9.63319C16.1686 10.9145 16.5313 11.4636 15.9393 11.5983C15.0313 11.8032 14.0159 9.34073 12.4577 8.30924C8.91907 5.96647 6.82013 7.082 0.648542 0.231188C-0.422673 -0.955727 0.0120121 2.71673 0.671405 4.67711C2.43161 9.9152 5.84135 10.6093 7.44978 10.7671C8.79592 10.9006 9.71298 10.5852 9.71298 11.109C9.71298 11.4889 8.12629 11.6616 7.51136 11.6639C6.83702 11.661 6.16429 11.5944 5.50134 11.4648C4.27738 11.2344 6.15049 14.3831 7.35398 15.3811C9.38448 17.0677 11.7094 17.6998 13.5779 17.8908C14.1175 17.946 14.8853 17.9369 14.8853 18.3628C14.8853 18.7681 14.4815 18.867 14.0035 18.8705C11.3865 18.8901 9.88298 20.9991 9.45643 23.4373C9.186 24.9868 9.38799 26.739 9.41646 28.0479L9.51913 28.9827C9.72448 30.6244 3.87467 31.2564 3.10012 28.6121C2.25249 25.7225 6.87483 24.1948 6.95927 21.4377C7.01285 19.7005 5.43864 18.9118 5.43864 18.9118V16.3746H3.62598V14.5476H1.81668V12.7207H0.00626281V18.2017H1.81668V20.0309H4.79748C5.47511 20.0309 6.01808 20.4822 5.95538 21.4583C5.79913 23.8679 0.720358 25.3483 2.11671 29.1899C3.12509 31.9644 7.47377 32 11.8281 32L19.9479 31.9931C20.2013 31.9931 20.5571 31.8699 20.0393 30.5483C19.6206 29.4812 18.1775 30.2307 16.9523 30.2307C15.6552 30.2307 15.6108 29.1254 16.4435 27.9593C16.9523 27.2478 17.6003 26.7183 18.7011 26.2014C20.3962 25.4035 21.6864 26.4293 22.3218 27.31C23.2345 28.5753 23.5242 30.0211 22.7189 30.2479C21.7481 30.522 21.4492 30.5587 21.4172 31.4912C21.3921 32.16 21.7093 31.977 23.2368 31.977H28.3074C29.0923 31.977 29.0341 31.3668 28.2447 30.3078C27.6846 29.556 27.0719 30.4344 25.6335 30.2767Z" fill="#4F2A93"/>
<path fill-rule="evenodd" clip-rule="evenodd" d="M128.228 22.902C127.895 22.6439 127.476 22.5291 127.061 22.5831C126.646 22.6371 126.268 22.8552 126.012 23.1898C125.713 23.5853 125.326 23.9054 124.884 24.1253C124.442 24.3452 123.954 24.4588 123.462 24.4572C122.643 24.4574 121.854 24.1425 121.258 23.5767C120.662 23.011 120.301 22.2369 120.25 21.4124C120.247 20.6652 120.244 19.9181 120.244 19.1708C120.245 18.3101 120.585 17.4848 121.188 16.8759C121.791 16.2671 122.609 15.9245 123.462 15.9233C124.352 15.9233 125.181 16.2824 125.796 16.9352C126.086 17.2305 126.48 17.399 126.893 17.4049C127.305 17.4108 127.705 17.2534 128.003 16.9667C128.302 16.68 128.479 16.2864 128.494 15.8703C128.51 15.4542 128.363 15.0484 128.086 14.7399C127.484 14.1042 126.767 13.6011 125.977 13.2601C125.179 12.9148 124.325 12.7366 123.462 12.7357C121.77 12.7375 120.15 13.416 118.955 14.6225C117.758 15.829 117.086 17.4648 117.085 19.1708C117.085 19.1928 117.086 21.4009 117.095 21.5631C117.184 23.2061 117.893 24.7523 119.078 25.8835C120.262 27.0147 121.83 27.6451 123.462 27.645C124.435 27.6491 125.398 27.425 126.278 26.989C127.155 26.5539 127.921 25.9204 128.514 25.1377C128.769 24.8028 128.883 24.3792 128.83 23.96C128.775 23.5408 128.559 23.1602 128.228 22.902ZM137.624 24.4572C136.805 24.4577 136.017 24.1431 135.421 23.5775C134.825 23.012 134.464 22.2379 134.412 21.4135C134.408 20.6655 134.407 19.9177 134.405 19.1698C134.407 18.3091 134.746 17.4841 135.349 16.8756C135.952 16.267 136.77 15.9245 137.623 15.9233C138.476 15.9242 139.294 16.2666 139.897 16.8752C140.5 17.4838 140.839 18.3089 140.841 19.1698C140.841 19.4 140.839 21.166 140.835 21.41C140.786 22.2353 140.425 23.0102 139.828 23.5766C139.232 24.1428 138.444 24.4579 137.624 24.4572ZM142.421 12.4594C141.685 12.4594 141.071 12.9704 140.897 13.6566C139.909 13.0542 138.777 12.7357 137.623 12.7357C135.933 12.7377 134.311 13.4164 133.116 14.6229C131.921 15.8293 131.249 17.4649 131.246 19.1708C131.246 19.1928 131.248 21.3997 131.256 21.5631C131.317 22.6768 131.664 23.7556 132.263 24.6932C132.861 25.6309 133.691 26.3954 134.672 26.9116C135.651 27.4279 136.748 27.6783 137.852 27.6381C138.957 27.5979 140.031 27.2686 140.973 26.6825C141.116 27.0193 141.371 27.2957 141.692 27.4651C142.017 27.6348 142.386 27.6866 142.741 27.6125C143.094 27.5402 143.413 27.3448 143.646 27.0582C143.874 26.7776 144 26.4208 144.001 26.0517V14.0537C144.001 13.1731 143.294 12.4594 142.421 12.4594ZM65.3431 24.4572C64.5241 24.4577 63.7358 24.1427 63.1391 23.5766C62.5422 23.0107 62.182 22.2362 62.1318 21.4112C62.1283 21.166 62.1261 19.4 62.1261 19.1698C62.1273 18.3091 62.4666 17.4841 63.0696 16.8756C63.6726 16.267 64.4903 15.9245 65.3431 15.9233C66.1959 15.9245 67.0134 16.267 67.6164 16.8756C68.2195 17.4841 68.5588 18.3091 68.56 19.1698C68.56 19.4 68.5588 21.166 68.5543 21.41C68.5045 22.2353 68.1445 23.0102 67.5476 23.5766C66.9508 24.1428 66.1622 24.4579 65.3431 24.4572ZM70.141 12.4594C69.4041 12.4594 68.7915 12.9704 68.6159 13.6566C67.6284 13.0545 66.4968 12.736 65.3431 12.7357C63.6523 12.7375 62.0314 13.416 60.8359 14.6225C59.6404 15.829 58.968 17.4648 58.9661 19.1708C58.9661 19.1928 58.9673 21.4009 58.9764 21.5631C59.0375 22.6767 59.3844 23.7551 59.9831 24.6927C60.5817 25.6301 61.4116 26.3945 62.3912 26.9108C63.3708 27.427 64.4667 27.6774 65.5712 27.6373C66.6755 27.5974 67.7508 27.2683 68.6911 26.6825C68.835 27.0193 69.0895 27.2957 69.4118 27.4651C69.7361 27.6348 70.1049 27.6866 70.4603 27.6125C70.8161 27.5383 71.1357 27.3425 71.3651 27.0582C71.5934 26.7775 71.7192 26.4207 71.7199 26.0517V14.0537C71.7199 13.1731 71.0127 12.4594 70.141 12.4594ZM93.3944 12.4594C92.5228 12.4594 91.8156 13.1731 91.8156 14.0537V26.0517C91.8266 26.467 91.9979 26.8615 92.2929 27.1513C92.5879 27.4411 92.9833 27.6033 93.395 27.6033C93.8067 27.6033 94.2021 27.4411 94.497 27.1513C94.792 26.8615 94.9633 26.467 94.9742 26.0517V14.0537C94.9742 13.1731 94.267 12.4594 93.3944 12.4594ZM111.998 12.4594C111.125 12.4594 110.418 13.1731 110.418 14.0537V26.0517C110.418 26.4746 110.584 26.8801 110.881 27.1791C111.177 27.4782 111.579 27.6462 111.998 27.6462C112.417 27.6462 112.819 27.4782 113.115 27.1791C113.411 26.8801 113.578 26.4746 113.578 26.0517V14.0537C113.578 13.1731 112.871 12.4594 111.998 12.4594ZM85.1979 21.4124C85.1472 22.2369 84.7867 23.011 84.1901 23.5767C83.5934 24.1425 82.8054 24.4574 81.9867 24.4572C81.1677 24.4574 80.3794 24.1421 79.7827 23.5759C79.186 23.0096 78.8258 22.235 78.7756 21.41C78.7709 21.1636 78.7698 19.4 78.7698 19.1698C78.7709 18.3091 79.1104 17.4841 79.7134 16.8756C80.3164 16.267 81.1339 15.9245 81.9867 15.9233C82.8395 15.9245 83.6571 16.267 84.2601 16.8756C84.8631 17.4841 85.2024 18.3091 85.2037 19.1698C85.2037 19.3919 85.2015 21.1648 85.1979 21.4135V21.4124ZM81.9867 12.7357C80.8591 12.7345 79.7506 13.0408 78.7698 13.6244V7.6726C78.7698 7.24973 78.6033 6.84423 78.3071 6.54515C78.0107 6.24621 77.6088 6.07812 77.1898 6.07812C76.7709 6.07812 76.369 6.24621 76.0726 6.54515C75.7764 6.84423 75.6099 7.24973 75.6099 7.6726V26.0517C75.6118 26.42 75.7382 26.7757 75.9666 27.0555C76.1961 27.339 76.5153 27.534 76.8705 27.608C77.2256 27.6819 77.5952 27.6304 77.9173 27.4619C78.2392 27.2934 78.4939 27.0183 78.6387 26.6825C79.6516 27.3143 80.8084 27.6468 81.9867 27.645C83.6184 27.645 85.188 27.0139 86.3725 25.8815C87.5569 24.7491 88.2663 23.2016 88.3545 21.5573C88.3625 21.3997 88.3636 19.1928 88.3636 19.1698C88.3618 17.4636 87.6894 15.8278 86.4939 14.6213C85.2984 13.415 83.6774 12.7363 81.9867 12.7345V12.7357ZM50.2884 12.7357C49.223 12.7338 48.1742 13.0017 47.238 13.515V7.6726C47.238 7.24973 47.0716 6.84423 46.7753 6.54515C46.4789 6.24621 46.0771 6.07812 45.6581 6.07812C45.239 6.07812 44.8371 6.24621 44.5409 6.54515C44.2446 6.84423 44.0781 7.24973 44.0781 7.6726V26.0517C44.0781 26.4746 44.2446 26.8801 44.5409 27.1791C44.8371 27.4782 45.239 27.6462 45.6581 27.6462C46.0771 27.6462 46.4789 27.4782 46.7753 27.1791C47.0716 26.8801 47.238 26.4746 47.238 26.0517V17.8125C47.359 17.7088 47.4696 17.5926 47.5586 17.4498C47.8468 16.9816 48.2489 16.5955 48.7268 16.3284C49.2076 16.0605 49.7441 15.9213 50.2884 15.9233C51.1412 15.9245 51.9587 16.267 52.5619 16.8756C53.1649 17.4841 53.5042 18.3091 53.5053 19.1698C53.5053 19.4621 53.5031 25.6568 53.4986 26.0125C53.4944 26.4279 53.6509 26.8284 53.9349 27.1289C54.2188 27.4295 54.6078 27.6063 55.019 27.6219C55.4303 27.6375 55.8313 27.4906 56.1368 27.2124C56.4423 26.9342 56.6282 26.5467 56.655 26.1323C56.663 25.9746 56.6641 19.2377 56.6641 19.1698C56.6623 17.4636 55.9898 15.8278 54.7943 14.6213C53.5988 13.415 51.9779 12.7363 50.2873 12.7345L50.2884 12.7357ZM106.002 12.4594H104.159V7.6726C104.159 7.24973 103.992 6.84423 103.696 6.54515C103.399 6.24621 102.998 6.07812 102.579 6.07812C102.16 6.07812 101.758 6.24621 101.461 6.54515C101.165 6.84423 100.999 7.24973 100.999 7.6726V12.4594H99.1575C98.7384 12.4594 98.3366 12.6274 98.0403 12.9263C97.7439 13.2254 97.5776 13.6309 97.5776 14.0537C97.5776 14.4766 97.7439 14.8823 98.0403 15.1812C98.3366 15.4803 98.7384 15.6482 99.1575 15.6482H101V26.0517C101 26.4746 101.166 26.8801 101.463 27.1791C101.759 27.4782 102.161 27.6462 102.58 27.6462C102.999 27.6462 103.401 27.4782 103.697 27.1791C103.993 26.8801 104.16 26.4746 104.16 26.0517V15.647H106.002C106.414 15.6359 106.805 15.4631 107.092 15.1654C107.379 14.8677 107.54 14.4687 107.54 14.0532C107.54 13.6378 107.379 13.2388 107.092 12.941C106.805 12.6434 106.414 12.4705 106.002 12.4594Z" fill="#4F2A93"/>
<path fill-rule="evenodd" clip-rule="evenodd" d="M94.9138 7.6726C94.9138 8.09546 94.7473 8.50096 94.4511 8.80005C94.1547 9.09898 93.7528 9.26707 93.3339 9.26707C92.9148 9.26707 92.5129 9.09898 92.2166 8.80005C91.9204 8.50096 91.7539 8.09546 91.7539 7.6726C91.7539 7.24973 91.9204 6.84423 92.2166 6.54515C92.5129 6.24621 92.9148 6.07812 93.3339 6.07812C93.7528 6.07812 94.1547 6.24621 94.4511 6.54515C94.7473 6.84423 94.9138 7.24973 94.9138 7.6726Z" fill="#FF6066"/>
<path fill-rule="evenodd" clip-rule="evenodd" d="M113.517 7.6726C113.517 8.09546 113.351 8.50096 113.054 8.80005C112.758 9.09898 112.356 9.26707 111.937 9.26707C111.518 9.26707 111.116 9.09898 110.82 8.80005C110.524 8.50096 110.357 8.09546 110.357 7.6726C110.357 7.24973 110.524 6.84423 110.82 6.54515C111.116 6.24621 111.518 6.07812 111.937 6.07812C112.356 6.07812 112.758 6.24621 113.054 6.54515C113.351 6.84423 113.517 7.24973 113.517 7.6726Z" fill="#4FB5E8"/>
</svg>
