<svg width="12" height="12" viewBox="0 0 12 12" fill="none" xmlns="http://www.w3.org/2000/svg">
<path d="M2.77161 5.27556C3.63561 6.97356 5.02761 8.35956 6.72561 9.22956L8.04561 7.90956C8.20761 7.74756 8.44761 7.69356 8.65761 7.76556C9.32961 7.98756 10.0556 8.10756 10.7996 8.10756C11.1296 8.10756 11.3996 8.37756 11.3996 8.70756V10.8016C11.3996 11.1316 11.1296 11.4016 10.7996 11.4016C5.16561 11.4016 0.599609 6.83556 0.599609 1.20156C0.599609 0.871563 0.869609 0.601562 1.19961 0.601562H3.29961C3.62961 0.601562 3.89961 0.871563 3.89961 1.20156C3.89961 1.95156 4.01961 2.67156 4.24161 3.34356C4.30761 3.55356 4.25961 3.78756 4.09161 3.95556L2.77161 5.27556Z" fill="white"/>
</svg>
