<svg width="26" height="26" viewBox="0 0 26 26" fill="none" xmlns="http://www.w3.org/2000/svg">
<path fill-rule="evenodd" clip-rule="evenodd" d="M0 7.09091C0 3.17471 3.17471 0 7.09091 0H18.9091C22.8253 0 26 3.17471 26 7.09091V18.9091C26 22.8253 22.8253 26 18.9091 26H7.09091C3.17471 26 0 22.8253 0 18.9091V7.09091ZM17.67 12.4483C17.6877 10.3122 15.8684 8.35409 13.6148 8.08301C13.5661 8.07693 13.5175 8.06955 13.4693 8.06085C13.356 8.03916 13.2411 8.02681 13.1259 8.02392C12.6634 8.02392 12.54 8.34892 12.5075 8.54171C12.4759 8.73006 12.5061 8.88887 12.597 9.01221C12.7498 9.21978 13.0195 9.25671 13.2359 9.28625L13.249 9.2881C13.3069 9.29626 13.362 9.30402 13.4087 9.31432C15.4341 9.7671 16.1159 10.4784 16.4489 12.4867C16.4563 12.5314 16.4601 12.5859 16.464 12.644L16.4652 12.6603L16.4653 12.6619C16.4801 12.9026 16.5107 13.3997 17.0465 13.3997C17.0909 13.3997 17.1396 13.396 17.1898 13.3886C17.689 13.3126 17.6736 12.8563 17.6662 12.6368V12.6367L17.6661 12.6335C17.6639 12.5727 17.6619 12.5156 17.6677 12.4772C17.6689 12.4674 17.6694 12.4574 17.6691 12.4476L17.67 12.4483ZM13.1584 7.31483C13.1111 7.30819 13.055 7.30375 12.9943 7.29932C12.7461 7.2816 12.2298 7.24392 12.2602 6.70989C12.2734 6.47869 12.3768 6.09091 12.922 6.09091C12.9824 6.09091 13.0415 6.09503 13.0934 6.09862L13.0993 6.09903L13.1111 6.09981C13.1515 6.10248 13.1887 6.10494 13.2204 6.10494C13.2339 6.10517 13.2475 6.10442 13.2609 6.10273C13.2743 6.10051 13.2875 6.10051 13.3023 6.10051C16.7266 6.21574 19.6945 9.32466 19.6516 12.7519C19.6516 12.7953 19.6536 12.8438 19.6556 12.8955L19.6561 12.907C19.6672 13.1345 19.679 13.4174 19.4973 13.6072C19.3925 13.7165 19.2469 13.772 19.063 13.772H19.0452C18.4606 13.761 18.4514 13.2164 18.447 12.954V12.9536C18.4462 12.8804 18.4448 12.811 18.4373 12.7542C18.0141 9.40221 16.4844 7.82671 13.1584 7.31483ZM18.065 16.9208C18.135 16.9768 18.2057 17.032 18.2771 17.0863C18.8118 17.4947 19.4781 18.0036 19.1132 19.0333C18.6973 20.2085 17.342 21.2396 16.2134 21.2396H16.1941C16.1739 21.2395 16.1538 21.2367 16.1343 21.2315C16.0988 21.2219 16.05 21.2108 15.9939 21.1983C15.8277 21.1613 15.6009 21.1103 15.3846 21.0172C12.9855 19.984 10.9143 18.6093 9.2295 16.9304C7.50775 15.2153 6.14275 13.1367 5.17144 10.7532C4.83609 9.92887 4.82132 9.13631 5.13155 8.46119C5.45286 7.76319 6.094 7.23432 6.98848 6.93369C7.32199 6.8142 7.68681 6.81525 8.01962 6.93665C8.79814 7.2225 10.6455 9.74199 10.6913 10.5789C10.7304 11.3168 10.1639 11.7016 9.85882 11.9084C9.32257 12.2733 9.22359 12.7209 9.52866 13.4063C10.1595 14.8238 11.263 15.8978 12.8068 16.598C12.9694 16.6778 13.1471 16.7224 13.3282 16.7288C13.5889 16.7288 13.8009 16.6002 13.9752 16.3358C14.3697 15.7397 14.8468 15.4369 15.395 15.4369C15.8011 15.4369 16.2311 15.6001 16.7097 15.9362L16.9423 16.0987L16.9743 16.1211C17.3374 16.3748 17.712 16.6367 18.065 16.9208ZM12.7573 10.4466C12.8984 10.0374 13.3009 10.0271 13.4936 10.0227C14.0063 10.0101 14.5691 10.2775 15.0359 10.7517C15.502 11.2244 15.7753 11.8183 15.7694 12.3413C15.7857 12.8428 15.6032 13.1197 15.2265 13.164C15.203 13.167 15.1793 13.1685 15.1556 13.1685C14.8432 13.1685 14.5986 12.9151 14.5625 12.5533C14.485 11.7755 14.0957 11.3574 13.3386 11.2363C13.1302 11.2023 12.9005 11.1402 12.7809 10.9408C12.6989 10.8041 12.6907 10.6387 12.7573 10.4466Z" fill="white"/>
</svg>
