<svg width="26" height="26" viewBox="0 0 26 26" fill="none" xmlns="http://www.w3.org/2000/svg">
<path fill-rule="evenodd" clip-rule="evenodd" d="M7.09091 0C3.17469 0 0 3.17383 0 7.09091V18.9091C0 22.8262 3.17469 26 7.09091 26H18.9091C22.8253 26 26 22.8262 26 18.9091V7.09091C26 3.17383 22.8253 0 18.9091 0H7.09091ZM4.82047 12.3814L19.6627 6.65696C20.3399 6.34997 20.9945 6.82084 20.7361 7.85725L18.2085 19.7678C18.0891 20.3402 17.8176 20.6172 17.4352 20.6172C17.2518 20.6172 17.0426 20.5525 16.8123 20.4256L12.9625 17.5819L11.1116 19.3823C10.8955 19.5901 10.7255 19.7654 10.3406 19.7654L10.6035 15.8368L17.7467 9.39223C18.0596 9.11293 17.6788 8.97674 17.2619 9.23065L8.44527 14.7935L4.63465 13.6047C3.8135 13.3531 3.80772 12.7876 4.82047 12.3814Z" fill="white"/>
</svg>
