<svg width="26" height="26" viewBox="0 0 26 26" fill="none" xmlns="http://www.w3.org/2000/svg">
<path d="M17.9946 13.4269C17.9441 13.5071 17.8789 13.5853 17.7949 13.6549C17.6468 13.7776 17.4663 13.8522 17.265 13.8829L17.2631 13.8832C17.1908 13.8939 17.1175 13.8997 17.0465 13.8997C16.8326 13.8997 16.633 13.8491 16.4616 13.739C16.2915 13.6298 16.1819 13.4832 16.1125 13.343C16.0906 13.2988 16.072 13.2537 16.0564 13.2089C15.8724 13.4815 15.5934 13.6238 15.287 13.6604C15.2863 13.6604 15.2857 13.6605 15.285 13.6606L15.2265 13.164C15.203 13.167 15.1793 13.1685 15.1556 13.1685C14.8432 13.1685 14.5986 12.9151 14.5625 12.5533L17.9946 13.4269ZM17.9946 13.4269C18.0125 13.5038 18.0373 13.5834 18.0718 13.6609C18.1389 13.8114 18.2485 13.9698 18.424 14.0895C18.6007 14.21 18.8097 14.2676 19.0358 14.2719L19.0358 14.272H19.0452H19.063C19.3525 14.272 19.6398 14.181 19.8582 13.9533L19.8584 13.953C20.0439 13.7594 20.1157 13.5314 20.1435 13.3452C20.1696 13.1705 20.1612 12.9991 20.1559 12.8909L20.1557 12.8865L20.1555 12.8826L20.1553 12.8761L20.1552 12.875L20.1551 12.8711C20.1531 12.8197 20.1517 12.7845 20.1516 12.7546C20.1958 9.05691 17.0143 5.72513 13.3191 5.60079L13.3107 5.60051H13.3023C13.3018 5.60051 13.3011 5.6005 13.3002 5.6005C13.2903 5.60043 13.2555 5.60017 13.213 5.60483C13.2007 5.60449 13.1811 5.60335 13.1441 5.6009L13.144 5.6009L13.1342 5.60025L13.1322 5.60012L13.1283 5.59984L13.1279 5.59981L13.1228 5.59946C13.0731 5.59601 12.9996 5.59091 12.922 5.59091C12.5145 5.59091 12.196 5.74484 11.9936 6.01114C11.8116 6.25054 11.7702 6.52054 11.761 6.68131L11.761 6.6815C11.7486 6.89854 11.7908 7.10525 11.9 7.2847C12.0079 7.46193 12.1579 7.57458 12.2987 7.64517C12.3542 7.67302 12.4112 7.69559 12.4676 7.71395C12.3979 7.7617 12.3353 7.81748 12.2801 7.88019C12.1018 8.08284 12.0387 8.31484 12.0145 8.45859L12.0145 8.45879C11.9662 8.74584 12.0045 9.05086 12.1944 9.30865L17.9946 13.4269ZM18.447 12.954C18.4514 13.2164 18.4606 13.761 19.0452 13.772H19.063C19.2469 13.772 19.3925 13.7165 19.4973 13.6072L18.447 12.954ZM18.447 12.954V12.9536M18.447 12.954V12.9536M18.5796 16.6882L18.5805 16.6889C18.5885 16.695 18.5965 16.7011 18.6047 16.7074C18.8574 16.9001 19.2218 17.1781 19.459 17.5659C19.728 18.0055 19.8157 18.5479 19.5845 19.2003C19.3375 19.898 18.8255 20.5245 18.2333 20.9751C17.6443 21.4232 16.9195 21.7396 16.2134 21.7396H16.1941H16.1912C16.1261 21.7392 16.0637 21.7301 16.0055 21.7146L16.004 21.7142C15.9811 21.708 15.9436 21.6993 15.8853 21.6863L18.5796 16.6882ZM18.5796 16.6882C18.5119 16.6367 18.4448 16.5843 18.3782 16.531C18.0115 16.2359 17.6248 15.9657 17.2654 15.7145L17.2608 15.7112L17.2604 15.711L17.2287 15.6889L17.2283 15.6886L16.9971 15.527C16.9969 15.5269 16.9967 15.5268 16.9965 15.5267C16.4693 15.1565 15.9399 14.9369 15.395 14.9369C14.6285 14.9369 14.0135 15.372 13.5583 16.0599L13.5578 16.0606C13.4585 16.2112 13.3904 16.2275 13.3363 16.2287C13.2289 16.2236 13.1235 16.1965 13.027 16.1491L13.0202 16.1458L13.0133 16.1427C11.5697 15.4879 10.5617 14.4979 9.98547 13.203L9.98546 13.203C9.85338 12.9062 9.84565 12.7394 9.86651 12.6448C9.8841 12.5651 9.93913 12.4585 10.1401 12.3217L9.85894 11.9085L10.1393 12.3222C10.1462 12.3176 10.1533 12.3128 10.1608 12.3078C10.4606 12.1052 11.2448 11.5756 11.1906 10.5524L11.1905 10.5515C11.1725 10.2214 10.9973 9.82059 10.8048 9.46097C10.5994 9.0772 10.3263 8.65477 10.0334 8.25542C9.74055 7.85611 9.42005 7.46911 9.11636 7.15888C8.83248 6.8689 8.5025 6.58131 8.19196 6.46729L8.19095 6.46692C7.75003 6.30609 7.26686 6.30411 6.82471 6.46125C5.83294 6.79563 5.06812 7.40324 4.67736 8.25212L4.67722 8.25242C4.29778 9.07815 4.33233 10.0174 4.70829 10.9416L4.70841 10.9419C5.70343 13.3836 7.10462 15.5195 8.87664 17.2846C10.6103 19.0122 12.7356 20.4207 15.1868 21.4764L15.1869 21.4765C15.4487 21.5892 15.7154 21.6485 15.879 21.6849L15.885 21.6863L18.5796 16.6882ZM18.447 12.9536C18.4462 12.8804 18.4448 12.811 18.4373 12.7542L18.447 12.9536ZM12.2848 10.283C12.1839 10.5741 12.1743 10.9016 12.3521 11.198L12.1945 9.3088C12.3501 9.52011 12.556 9.62927 12.7307 9.68905C12.7394 9.69203 12.7481 9.69492 12.7568 9.69771C12.5616 9.81251 12.3831 9.99845 12.2848 10.283ZM0.5 7.09091C0.5 3.45085 3.45085 0.5 7.09091 0.5H18.9091C22.5491 0.5 25.5 3.45085 25.5 7.09091V18.9091C25.5 22.5491 22.5491 25.5 18.9091 25.5H7.09091C3.45085 25.5 0.5 22.5491 0.5 18.9091V7.09091Z" stroke="white"/>
</svg>
