<svg width="26" height="26" viewBox="0 0 26 26" fill="none" xmlns="http://www.w3.org/2000/svg">
<path d="M20.005 10.9595V11.8131V17.0782V17.0888L20.0045 17.0995L19.9995 17.2157L19.9991 17.2258L19.9983 17.2359C19.958 17.7195 19.734 18.1685 19.3735 18.4945C19.0135 18.8203 18.5436 18.9998 18.0574 19H18.0572H7.94772H7.9373L7.9269 18.9996L7.80778 18.9946L7.798 18.9942L7.78825 18.9934C7.30362 18.9542 6.84995 18.7372 6.51801 18.3832C6.1858 18.0289 6.00002 17.5632 6 17.0782V11.8139V10.96L6.74468 11.3779L12.933 14.8504L12.9666 14.8648L20.005 10.9595ZM20.005 10.9595L19.2604 11.377L13.0545 14.857C13.0409 14.8634 13.0255 14.8675 13.009 14.8687L20.005 10.9595ZM7.94772 7.81045H7.9477C7.46157 7.81047 6.99172 7.98992 6.6317 8.31551L6.6317 8.31552C6.27143 8.64134 6.04734 9.09005 6.00672 9.57337L6.00585 9.5837L6.00541 9.59405L6.00045 9.71104L6 9.72163V9.73224V10.0808V10.3827L6.26722 10.5233L12.7672 13.9425L13 14.065L13.2328 13.9425L19.7328 10.5225L20 10.3819V10.08V9.73224C20 9.247 19.814 8.7811 19.4816 8.4268C19.1494 8.07272 18.6954 7.85596 18.2107 7.81693L18.2009 7.81614L18.1911 7.81574L18.0728 7.81087L18.0626 7.81045H18.0523H7.94772ZM0.5 7.09091C0.5 3.45085 3.45085 0.5 7.09091 0.5H18.9091C22.5491 0.5 25.5 3.45085 25.5 7.09091V18.9091C25.5 22.5491 22.5491 25.5 18.9091 25.5H7.09091C3.45085 25.5 0.5 22.5491 0.5 18.9091V7.09091Z" stroke="white"/>
</svg>
