<svg width="26" height="26" viewBox="0 0 26 26" fill="none" xmlns="http://www.w3.org/2000/svg">
<path fill-rule="evenodd" clip-rule="evenodd" d="M7.09091 0C3.17471 0 0 3.17471 0 7.09091V18.9091C0 22.8253 3.17471 26 7.09091 26H18.9091C22.8253 26 26 22.8253 26 18.9091V7.09091C26 3.17471 22.8253 0 18.9091 0H7.09091ZM18.5841 7.09177H7.416L7.26378 7.09584C6.57814 7.13402 5.93337 7.42842 5.46173 7.91867C4.99009 8.4089 4.72733 9.0578 4.72738 9.73224V17.4505L4.73152 17.6C4.7704 18.2734 5.07018 18.9066 5.56935 19.3698C6.06852 19.833 6.72925 20.091 7.416 20.091H18.5841L18.7363 20.0869C19.422 20.0487 20.0668 19.7543 20.5383 19.2641C21.01 18.7739 21.2727 18.125 21.2727 17.4505V9.73224L21.2686 9.58275C21.2297 8.90938 20.93 8.27615 20.4308 7.81296C19.9316 7.34977 19.2708 7.09174 18.5841 7.09177ZM13.2895 15.2985L19.505 11.8131V17.0782L19.5 17.1943C19.4703 17.5502 19.3055 17.8819 19.0381 18.1237C18.7708 18.3656 18.4208 18.4999 18.0572 18.5H7.94772L7.82859 18.495C7.46649 18.4657 7.12887 18.3037 6.88276 18.0412C6.63663 17.7787 6.50001 17.4349 6.5 17.0782V11.8139L12.7113 15.2993L12.7907 15.3334C12.8718 15.3619 12.958 15.3735 13.044 15.3675C13.1298 15.3615 13.2134 15.3381 13.2895 15.2985ZM7.94772 8.31045H18.0523L18.1706 8.31532C18.5328 8.34449 18.8707 8.50641 19.117 8.76891C19.3633 9.03141 19.5 9.37529 19.5 9.73224V10.08L13 13.5L6.5 10.0808V9.73224L6.50496 9.61525C6.53485 9.25964 6.69981 8.92807 6.96708 8.68635C7.23435 8.44465 7.58439 8.31046 7.94772 8.31045Z" fill="white"/>
</svg>
