<svg width="26" height="26" viewBox="0 0 26 26" fill="none" xmlns="http://www.w3.org/2000/svg">
<g clip-path="url(#clip0_7005_6912)">
<path d="M4.64055 11.9149H4.64053L4.63434 11.9174C4.34849 12.032 4.10334 12.1697 3.91757 12.3339C3.735 12.4953 3.57079 12.7186 3.54236 13.001C3.51206 13.3021 3.6469 13.5535 3.83131 13.7279C4.00686 13.8939 4.23969 14.0065 4.48699 14.0824C4.48738 14.0826 4.48778 14.0827 4.48817 14.0828L8.29637 15.2708L8.5168 15.3396L8.71208 15.2164L14.8078 11.3703L10.2685 15.4656L10.1181 15.6013L10.1046 15.8035L9.84174 19.7321L9.80605 20.2654H10.3406C10.6188 20.2654 10.8463 20.1995 11.0446 20.0817C11.2076 19.985 11.3399 19.857 11.4334 19.7666C11.442 19.7583 11.4502 19.7503 11.4581 19.7427L11.4602 19.7407L13.0069 18.2363L16.5152 20.8278L16.5419 20.8475L16.571 20.8635C16.8444 21.0142 17.1381 21.1172 17.4352 21.1172C17.7619 21.1172 18.0594 20.9925 18.2871 20.7472C18.5012 20.5162 18.6274 20.2076 18.6978 19.8709C18.6978 19.8705 18.6979 19.8702 18.698 19.8699L21.2234 7.96921C21.375 7.35247 21.2856 6.76889 20.8979 6.39392C20.5054 6.01433 19.9474 5.98457 19.4706 6.19515L4.64055 11.9149ZM0.5 7.09091C0.5 3.45001 3.4508 0.5 7.09091 0.5H18.9091C22.5492 0.5 25.5 3.45001 25.5 7.09091V18.9091C25.5 22.55 22.5492 25.5 18.9091 25.5H7.09091C3.45079 25.5 0.5 22.55 0.5 18.9091V7.09091Z" stroke="black"/>
</g>
<defs>
<clipPath id="clip0_7005_6912">
<rect width="26" height="26" fill="white"/>
</clipPath>
</defs>
</svg>
