<svg width="18" height="18" viewBox="0 0 18 18" fill="none" xmlns="http://www.w3.org/2000/svg">
<path d="M5.77161 8.27556C6.63561 9.97356 8.02761 11.3596 9.72561 12.2296L11.0456 10.9096C11.2076 10.7476 11.4476 10.6936 11.6576 10.7656C12.3296 10.9876 13.0556 11.1076 13.7996 11.1076C14.1296 11.1076 14.3996 11.3776 14.3996 11.7076V13.8016C14.3996 14.1316 14.1296 14.4016 13.7996 14.4016C8.16561 14.4016 3.59961 9.83556 3.59961 4.20156C3.59961 3.87156 3.86961 3.60156 4.19961 3.60156H6.29961C6.62961 3.60156 6.89961 3.87156 6.89961 4.20156C6.89961 4.95156 7.01961 5.67156 7.24161 6.34356C7.30761 6.55356 7.25961 6.78756 7.09161 6.95556L5.77161 8.27556Z" fill="white"/>
</svg>
