<svg width="21" height="21" viewBox="0 0 21 21" fill="none" xmlns="http://www.w3.org/2000/svg">
<path d="M4.40704 8.81707C6.00871 12.0202 8.58917 14.6348 11.7369 16.2759L14.1839 13.7859C14.4842 13.4803 14.9291 13.3784 15.3184 13.5142C16.5642 13.933 17.91 14.1594 19.2892 14.1594C19.901 14.1594 20.4015 14.6687 20.4015 15.2912V19.2414C20.4015 19.8639 19.901 20.3732 19.2892 20.3732C8.845 20.3732 0.380615 11.7599 0.380615 1.13184C0.380615 0.50933 0.881137 0 1.49289 0H5.38583C5.99758 0 6.49811 0.50933 6.49811 1.13184C6.49811 2.54665 6.72056 3.90487 7.1321 5.17253C7.25445 5.56868 7.16547 6.0101 6.85403 6.32701L4.40704 8.81707Z" fill="white"/>
</svg>
