<svg width="23" height="23" viewBox="0 0 23 23" fill="none" xmlns="http://www.w3.org/2000/svg">
<path d="M22.0406 6.56088C22.0282 5.62754 21.8541 4.70349 21.5261 3.83005C21.2417 3.09331 20.8072 2.42422 20.2506 1.86553C19.6939 1.30683 19.0272 0.87082 18.2931 0.585353C17.4339 0.261692 16.5263 0.086683 15.6089 0.0677777C14.4276 0.0147879 14.0531 0 11.0546 0C8.05603 0 7.6717 8.26335e-08 6.49905 0.0677777C5.582 0.086822 4.67481 0.261829 3.81608 0.585353C3.08187 0.870622 2.41507 1.30656 1.85835 1.86528C1.30163 2.424 0.867257 3.0932 0.58301 3.83005C0.259864 4.69161 0.0858603 5.60227 0.0685185 6.52267C0.0157186 7.7094 -0.000244141 8.08526 -0.000244141 11.0946C-0.000244141 14.1039 -0.00024415 14.4884 0.0685185 15.6665C0.086937 16.5883 0.260071 17.4977 0.58301 18.3616C0.867733 19.0982 1.30243 19.7671 1.85934 20.3256C2.41624 20.8841 3.0831 21.3199 3.81731 21.605C4.67369 21.9417 5.58104 22.1293 6.50028 22.1596C7.68275 22.2126 8.05726 22.2286 11.0558 22.2286C14.0543 22.2286 14.4387 22.2286 15.6113 22.1596C16.5288 22.1415 17.4364 21.9669 18.2955 21.6432C19.0294 21.3575 19.696 20.9213 20.2526 20.3627C20.8093 19.804 21.2438 19.1351 21.5286 18.3985C21.8515 17.5359 22.0247 16.6265 22.0431 15.7035C22.0959 14.518 22.1118 14.1421 22.1118 11.1316C22.1094 8.12223 22.1094 7.74021 22.0406 6.56088ZM11.0472 16.7854C7.91114 16.7854 5.37061 14.2358 5.37061 11.0884C5.37061 7.94108 7.91114 5.3914 11.0472 5.3914C12.5527 5.3914 13.9966 5.99162 15.0612 7.06002C16.1257 8.12842 16.7238 9.57748 16.7238 11.0884C16.7238 12.5994 16.1257 14.0484 15.0612 15.1168C13.9966 16.1852 12.5527 16.7854 11.0472 16.7854ZM16.9497 6.50912C16.2167 6.50912 15.6261 5.91514 15.6261 5.18068C15.6261 5.0063 15.6603 4.83364 15.7268 4.67254C15.7933 4.51144 15.8907 4.36506 16.0136 4.24176C16.1364 4.11846 16.2823 4.02066 16.4428 3.95393C16.6033 3.8872 16.7754 3.85285 16.9491 3.85285C17.1229 3.85285 17.2949 3.8872 17.4554 3.95393C17.616 4.02066 17.7618 4.11846 17.8847 4.24176C18.0075 4.36506 18.105 4.51144 18.1715 4.67254C18.238 4.83364 18.2722 5.0063 18.2722 5.18068C18.2722 5.91514 17.6803 6.50912 16.9497 6.50912Z" fill="white"/>
<path d="M11.047 14.788C13.0835 14.788 14.7344 13.1312 14.7344 11.0874C14.7344 9.04356 13.0835 7.38672 11.047 7.38672C9.01052 7.38672 7.35962 9.04356 7.35962 11.0874C7.35962 13.1312 9.01052 14.788 11.047 14.788Z" fill="white"/>
</svg>
