<svg width="23" height="23" viewBox="0 0 23 23" fill="none" xmlns="http://www.w3.org/2000/svg">
<path d="M4.96856 0C2.57659 0 0.618896 1.96469 0.618896 4.36531V17.9116C0.618896 20.3122 2.57654 22.2762 4.96856 22.2762H18.4663C20.8583 22.2762 22.8153 20.3122 22.8153 17.9116V4.36531C22.8153 1.96473 20.8583 0 18.4663 0H4.96856ZM6.06257 3.67603C7.20947 3.67603 7.91591 4.43166 7.93772 5.42492C7.93772 6.39625 7.20942 7.17312 6.04038 7.17312H6.01887C4.89379 7.17312 4.16661 6.3963 4.16661 5.42492C4.16661 4.43168 4.91582 3.67603 6.06257 3.67603ZM15.9461 8.31842C18.1518 8.31842 19.8053 9.76527 19.8053 12.8745V18.6788H16.4532V13.2636C16.4532 11.9029 15.968 10.9745 14.7549 10.9745C13.8289 10.9745 13.2769 11.6002 13.0345 12.2047C12.946 12.421 12.9242 12.723 12.9242 13.0255V18.6788H9.57213C9.57213 18.6788 9.61612 9.50564 9.57213 8.55581H12.9249V9.98933C13.3703 9.29958 14.1671 8.31842 15.9461 8.31842ZM4.36433 8.55655H7.71641V18.6789H4.36433V8.55655Z" fill="white"/>
</svg>
