<svg width="23" height="23" viewBox="0 0 23 23" fill="none" xmlns="http://www.w3.org/2000/svg">
<path fill-rule="evenodd" clip-rule="evenodd" d="M0.727692 3.89224C0 5.36093 0 7.28728 0 11.14C0 14.9927 0 16.9191 0.727692 18.3878C1.40784 19.7605 2.51953 20.8722 3.89224 21.5523C5.36093 22.28 7.27395 22.28 11.1 22.28C14.9261 22.28 16.8391 22.28 18.3078 21.5523C19.6805 20.8722 20.7922 19.7605 21.4723 18.3878C22.2 16.9191 22.2 14.9927 22.2 11.14C22.2 7.28728 22.2 5.36093 21.4723 3.89224C20.7922 2.51953 19.6805 1.40784 18.3078 0.727692C16.8391 0 14.9261 0 11.1 0C7.27395 0 5.36093 0 3.89224 0.727692C2.51953 1.40784 1.40784 2.51953 0.727692 3.89224ZM7.22765 8.54515V18.5667H3.89649V8.54515H7.22765ZM7.4472 5.44486C7.4472 6.40652 6.72414 7.17606 5.5625 7.17606H5.5624H5.54075C4.42284 7.17606 3.69995 6.40657 3.69995 5.44486C3.69995 4.46152 4.44509 3.71333 5.58455 3.71333C6.72418 3.71333 7.42556 4.46151 7.4472 5.44486ZM12.4026 18.5667H9.07144L9.07152 18.5665C9.07152 18.5665 9.11523 9.4853 9.07152 8.54494H12.4027V9.96388C12.8454 9.28104 13.6378 8.30987 15.4048 8.30987C17.5965 8.30987 19.24 9.74213 19.24 12.8203V18.5666H15.909V13.2053C15.909 11.8581 15.4268 10.9391 14.2214 10.9391C13.3011 10.9391 12.753 11.5589 12.5122 12.1573C12.4243 12.3714 12.4026 12.6706 12.4026 12.9702V18.5667Z" fill="white"/>
</svg>
