<svg width="50" height="50" viewBox="0 0 50 50" fill="none" xmlns="http://www.w3.org/2000/svg">
<rect x="1" y="1" width="48" height="48" stroke="white" stroke-width="2"/>
<path d="M15.303 38C14.4386 38 13.6222 37.8267 12.8539 37.48C12.0855 37.1333 11.4132 36.6752 10.8369 36.1057C10.2606 35.5114 9.80439 34.8181 9.46823 34.0257C9.15608 33.2333 9 32.3914 9 31.5H10.2966C10.2966 32.2181 10.4287 32.899 10.6928 33.5429C10.9569 34.1619 11.3051 34.7067 11.7373 35.1771C12.1935 35.6229 12.7218 35.9819 13.3221 36.2543C13.9464 36.5267 14.6067 36.6629 15.303 36.6629C15.9994 36.6629 16.6477 36.5267 17.248 36.2543C17.8723 35.9819 18.4005 35.6229 18.8327 35.1771C19.2889 34.7067 19.6491 34.1619 19.9132 33.5429C20.1774 32.899 20.3094 32.2181 20.3094 31.5V18.5C20.3094 17.7819 20.1774 17.1133 19.9132 16.4943C19.6491 15.8505 19.2889 15.3057 18.8327 14.86C18.4005 14.3895 17.8723 14.0181 17.248 13.7457C16.6477 13.4733 15.9994 13.3371 15.303 13.3371H9V12H21.6061V31.5C21.6061 32.3914 21.438 33.2333 21.1018 34.0257C20.7657 34.8181 20.3094 35.5114 19.7332 36.1057C19.1809 36.7 18.5206 37.1705 17.7522 37.5171C16.9838 37.839 16.1674 38 15.303 38Z" fill="white" stroke="white"/>
<path d="M40.9999 31.5H39.6222C39.6222 30.7076 39.4564 30.0143 39.1247 29.42C38.7931 28.8257 38.3594 28.2933 37.8236 27.8229C37.2879 27.3276 36.6628 26.8819 35.9485 26.4857C35.2596 26.0895 34.5453 25.6933 33.8054 25.2971C33.0656 24.901 32.3257 24.5048 31.5859 24.1086C30.8715 23.6876 30.221 23.2171 29.6342 22.6971C28.282 21.5333 27.606 20.1343 27.606 18.5C27.606 17.6086 27.7718 16.7667 28.1034 15.9743C28.4606 15.1819 28.9454 14.501 29.5576 13.9314C30.1699 13.3371 30.8843 12.8667 31.7007 12.52C32.5171 12.1733 33.3845 12 34.3029 12C35.2214 12 36.0888 12.1733 36.9052 12.52C37.7216 12.8667 38.4232 13.3371 39.0099 13.9314C39.6222 14.501 40.107 15.1819 40.4641 15.9743C40.8213 16.7667 40.9999 17.6086 40.9999 18.5H39.6222C39.6222 17.7819 39.4819 17.1133 39.2013 16.4943C38.9206 15.8505 38.538 15.3057 38.0532 14.86C37.594 14.3895 37.0327 14.0181 36.3694 13.7457C35.7316 13.4733 35.0428 13.3371 34.3029 13.3371C33.5631 13.3371 32.8615 13.4733 32.1982 13.7457C31.5604 14.0181 30.9991 14.3895 30.5144 14.86C30.0551 15.3057 29.6852 15.8505 29.4046 16.4943C29.1239 17.1133 28.9836 17.7819 28.9836 18.5C28.9836 19.7133 29.5066 20.7905 30.5526 21.7314C31.0629 22.1771 31.6497 22.5981 32.313 22.9943C33.0018 23.3657 33.7161 23.7495 34.456 24.1457C35.2214 24.5419 35.9867 24.9629 36.7521 25.4086C37.5175 25.8295 38.2063 26.3248 38.8186 26.8943C40.2728 28.2067 40.9999 29.7419 40.9999 31.5ZM34.3029 38C33.3845 38 32.5171 37.839 31.7007 37.5171C30.8843 37.1705 30.1699 36.7 29.5576 36.1057C28.9454 35.5114 28.4606 34.8181 28.1034 34.0257C27.7718 33.2333 27.606 32.3914 27.606 31.5H28.9836C28.9836 32.2181 29.1239 32.899 29.4046 33.5429C29.6852 34.1619 30.0551 34.7067 30.5144 35.1771C30.9991 35.6229 31.5604 35.9819 32.1982 36.2543C32.8615 36.5267 33.5631 36.6629 34.3029 36.6629V38Z" fill="white" stroke="white"/>
</svg>
