<svg width="241" height="50" viewBox="0 0 241 50" fill="none" xmlns="http://www.w3.org/2000/svg">
<rect x="1.8125" y="1" width="238" height="48" stroke="white" stroke-width="2"/>
<rect x="0.8125" width="50" height="50" fill="white"/>
<path d="M74.9375 30.1791C74.3875 30.1791 73.8375 30.0541 73.2875 29.8041C72.7475 29.5441 72.2975 29.1241 71.9375 28.5441L72.8525 27.6291C73.1325 28.0491 73.4525 28.3641 73.8125 28.5741C74.1725 28.7741 74.5325 28.8741 74.8925 28.8741C75.5525 28.8741 76.0325 28.7041 76.3325 28.3641C76.6425 28.0241 76.7975 27.4641 76.7975 26.6841V21.4191H72.7625V20.1591H78.2975V26.8041C78.2975 27.2741 78.2375 27.7141 78.1175 28.1241C78.0075 28.5241 77.8225 28.8791 77.5625 29.1891C77.3025 29.4991 76.9575 29.7441 76.5275 29.9241C76.0975 30.0941 75.5675 30.1791 74.9375 30.1791Z" fill="white"/>
<path d="M85.0716 30.1791C84.5616 30.1791 84.0966 30.1041 83.6766 29.9541C83.2666 29.8041 82.9116 29.5741 82.6116 29.2641C82.3116 28.9441 82.0816 28.5391 81.9216 28.0491C81.7616 27.5491 81.6816 26.9541 81.6816 26.2641V20.1741H83.1966V26.3541C83.1966 27.2541 83.3666 27.8991 83.7066 28.2891C84.0566 28.6791 84.5116 28.8741 85.0716 28.8741C85.6316 28.8741 86.0866 28.6791 86.4366 28.2891C86.7966 27.8991 86.9766 27.2541 86.9766 26.3541V20.1741H88.4316V26.2641C88.4316 26.9541 88.3516 27.5491 88.1916 28.0491C88.0316 28.5391 87.8066 28.9441 87.5166 29.2641C87.2266 29.5741 86.8716 29.8041 86.4516 29.9541C86.0416 30.1041 85.5816 30.1791 85.0716 30.1791Z" fill="white"/>
<path d="M91.6808 29.9991V20.1741H94.8458C95.3558 20.1741 95.8258 20.2241 96.2558 20.3241C96.6858 20.4141 97.0558 20.5741 97.3658 20.8041C97.6858 21.0241 97.9308 21.3141 98.1008 21.6741C98.2808 22.0341 98.3708 22.4791 98.3708 23.0091C98.3708 23.7691 98.1808 24.3791 97.8008 24.8391C97.4308 25.2991 96.9308 25.6241 96.3008 25.8141L98.7158 29.9991H97.0208L94.7858 26.0091H93.1808V29.9991H91.6808ZM93.1808 24.7941H94.6658C95.3858 24.7941 95.9358 24.6491 96.3158 24.3591C96.6958 24.0591 96.8858 23.6091 96.8858 23.0091C96.8858 22.4091 96.6958 21.9891 96.3158 21.7491C95.9358 21.4991 95.3858 21.3741 94.6658 21.3741H93.1808V24.7941Z" fill="white"/>
<path d="M103.57 24.6441L103.165 25.9941H105.88L105.475 24.6441C105.315 24.1041 105.155 23.5641 104.995 23.0241C104.835 22.4841 104.685 21.9341 104.545 21.3741H104.485C104.345 21.9341 104.195 22.4841 104.035 23.0241C103.885 23.5641 103.73 24.1041 103.57 24.6441ZM100.435 29.9991L103.675 20.1741H105.415L108.655 29.9991H107.065L106.225 27.1791H102.805L101.965 29.9991H100.435Z" fill="white"/>
<path d="M114.334 30.1791C113.624 30.1791 112.964 30.0541 112.354 29.8041C111.744 29.5441 111.204 29.1841 110.734 28.7241L111.604 27.7041C111.984 28.0541 112.414 28.3391 112.894 28.5591C113.374 28.7691 113.884 28.8741 114.424 28.8741C115.054 28.8741 115.534 28.7491 115.864 28.4991C116.204 28.2391 116.374 27.9041 116.374 27.4941C116.374 27.2541 116.329 27.0541 116.239 26.8941C116.159 26.7341 116.044 26.5941 115.894 26.4741C115.744 26.3541 115.564 26.2491 115.354 26.1591C115.144 26.0591 114.914 25.9591 114.664 25.8591L113.284 25.2441C113.034 25.1441 112.784 25.0241 112.534 24.8841C112.284 24.7341 112.059 24.5591 111.859 24.3591C111.659 24.1491 111.494 23.9091 111.364 23.6391C111.244 23.3591 111.184 23.0391 111.184 22.6791C111.184 22.2991 111.264 21.9441 111.424 21.6141C111.584 21.2841 111.809 20.9991 112.099 20.7591C112.399 20.5191 112.749 20.3341 113.149 20.2041C113.559 20.0641 114.009 19.9941 114.499 19.9941C115.109 19.9941 115.679 20.1041 116.209 20.3241C116.739 20.5441 117.194 20.8441 117.574 21.2241L116.794 22.1841C116.474 21.9041 116.124 21.6891 115.744 21.5391C115.374 21.3791 114.934 21.2991 114.424 21.2991C113.904 21.2991 113.484 21.4141 113.164 21.6441C112.854 21.8741 112.699 22.1891 112.699 22.5891C112.699 22.7991 112.744 22.9841 112.834 23.1441C112.934 23.2941 113.064 23.4291 113.224 23.5491C113.384 23.6591 113.564 23.7591 113.764 23.8491C113.974 23.9291 114.189 24.0141 114.409 24.1041L115.744 24.6891C116.054 24.8091 116.339 24.9491 116.599 25.1091C116.859 25.2591 117.084 25.4391 117.274 25.6491C117.474 25.8491 117.629 26.0891 117.739 26.3691C117.849 26.6391 117.904 26.9541 117.904 27.3141C117.904 27.7041 117.824 28.0741 117.664 28.4241C117.504 28.7741 117.269 29.0791 116.959 29.3391C116.649 29.5991 116.274 29.8041 115.834 29.9541C115.394 30.1041 114.894 30.1791 114.334 30.1791Z" fill="white"/>
<path d="M124.078 30.1791C123.368 30.1791 122.708 30.0541 122.098 29.8041C121.488 29.5441 120.948 29.1841 120.478 28.7241L121.348 27.7041C121.728 28.0541 122.158 28.3391 122.638 28.5591C123.118 28.7691 123.628 28.8741 124.168 28.8741C124.798 28.8741 125.278 28.7491 125.608 28.4991C125.948 28.2391 126.118 27.9041 126.118 27.4941C126.118 27.2541 126.073 27.0541 125.983 26.8941C125.903 26.7341 125.788 26.5941 125.638 26.4741C125.488 26.3541 125.308 26.2491 125.098 26.1591C124.888 26.0591 124.658 25.9591 124.408 25.8591L123.028 25.2441C122.778 25.1441 122.528 25.0241 122.278 24.8841C122.028 24.7341 121.803 24.5591 121.603 24.3591C121.403 24.1491 121.238 23.9091 121.108 23.6391C120.988 23.3591 120.928 23.0391 120.928 22.6791C120.928 22.2991 121.008 21.9441 121.168 21.6141C121.328 21.2841 121.553 20.9991 121.843 20.7591C122.143 20.5191 122.493 20.3341 122.893 20.2041C123.303 20.0641 123.753 19.9941 124.243 19.9941C124.853 19.9941 125.423 20.1041 125.953 20.3241C126.483 20.5441 126.938 20.8441 127.318 21.2241L126.538 22.1841C126.218 21.9041 125.868 21.6891 125.488 21.5391C125.118 21.3791 124.678 21.2991 124.168 21.2991C123.648 21.2991 123.228 21.4141 122.908 21.6441C122.598 21.8741 122.443 22.1891 122.443 22.5891C122.443 22.7991 122.488 22.9841 122.578 23.1441C122.678 23.2941 122.808 23.4291 122.968 23.5491C123.128 23.6591 123.308 23.7591 123.508 23.8491C123.718 23.9291 123.933 24.0141 124.153 24.1041L125.488 24.6891C125.798 24.8091 126.083 24.9491 126.343 25.1091C126.603 25.2591 126.828 25.4391 127.018 25.6491C127.218 25.8491 127.373 26.0891 127.483 26.3691C127.593 26.6391 127.648 26.9541 127.648 27.3141C127.648 27.7041 127.568 28.0741 127.408 28.4241C127.248 28.7741 127.013 29.0791 126.703 29.3391C126.393 29.5991 126.018 29.8041 125.578 29.9541C125.138 30.1041 124.638 30.1791 124.078 30.1791Z" fill="white"/>
<path d="M130.627 29.9991V28.7391H133.027V21.4341H130.627V20.1741H136.927V21.4341H134.527V28.7391H136.927V29.9991H130.627Z" fill="white"/>
<path d="M144.301 30.1791C143.691 30.1791 143.121 30.0691 142.591 29.8491C142.061 29.6191 141.601 29.2891 141.211 28.8591C140.821 28.4191 140.511 27.8891 140.281 27.2691C140.061 26.6391 139.951 25.9191 139.951 25.1091C139.951 24.3091 140.061 23.5941 140.281 22.9641C140.511 22.3341 140.821 21.7991 141.211 21.3591C141.611 20.9191 142.081 20.5841 142.621 20.3541C143.171 20.1141 143.771 19.9941 144.421 19.9941C145.021 19.9941 145.556 20.1191 146.026 20.3691C146.496 20.6091 146.881 20.8891 147.181 21.2091L146.341 22.1541C146.091 21.8941 145.811 21.6891 145.501 21.5391C145.191 21.3791 144.831 21.2991 144.421 21.2991C143.981 21.2991 143.581 21.3891 143.221 21.5691C142.861 21.7391 142.551 21.9891 142.291 22.3191C142.041 22.6391 141.846 23.0341 141.706 23.5041C141.566 23.9641 141.496 24.4841 141.496 25.0641C141.496 25.6541 141.566 26.1841 141.706 26.6541C141.846 27.1241 142.046 27.5241 142.306 27.8541C142.566 28.1841 142.876 28.4391 143.236 28.6191C143.596 28.7891 144.001 28.8741 144.451 28.8741C144.881 28.8741 145.266 28.7841 145.606 28.6041C145.946 28.4241 146.261 28.1691 146.551 27.8391L147.391 28.7541C147.001 29.2141 146.551 29.5691 146.041 29.8191C145.541 30.0591 144.961 30.1791 144.301 30.1791Z" fill="white"/>
<path d="M163.055 30.1791C162.345 30.1791 161.685 30.0541 161.075 29.8041C160.465 29.5441 159.925 29.1841 159.455 28.7241L160.325 27.7041C160.705 28.0541 161.135 28.3391 161.615 28.5591C162.095 28.7691 162.605 28.8741 163.145 28.8741C163.775 28.8741 164.255 28.7491 164.585 28.4991C164.925 28.2391 165.095 27.9041 165.095 27.4941C165.095 27.2541 165.05 27.0541 164.96 26.8941C164.88 26.7341 164.765 26.5941 164.615 26.4741C164.465 26.3541 164.285 26.2491 164.075 26.1591C163.865 26.0591 163.635 25.9591 163.385 25.8591L162.005 25.2441C161.755 25.1441 161.505 25.0241 161.255 24.8841C161.005 24.7341 160.78 24.5591 160.58 24.3591C160.38 24.1491 160.215 23.9091 160.085 23.6391C159.965 23.3591 159.905 23.0391 159.905 22.6791C159.905 22.2991 159.985 21.9441 160.145 21.6141C160.305 21.2841 160.53 20.9991 160.82 20.7591C161.12 20.5191 161.47 20.3341 161.87 20.2041C162.28 20.0641 162.73 19.9941 163.22 19.9941C163.83 19.9941 164.4 20.1041 164.93 20.3241C165.46 20.5441 165.915 20.8441 166.295 21.2241L165.515 22.1841C165.195 21.9041 164.845 21.6891 164.465 21.5391C164.095 21.3791 163.655 21.2991 163.145 21.2991C162.625 21.2991 162.205 21.4141 161.885 21.6441C161.575 21.8741 161.42 22.1891 161.42 22.5891C161.42 22.7991 161.465 22.9841 161.555 23.1441C161.655 23.2941 161.785 23.4291 161.945 23.5491C162.105 23.6591 162.285 23.7591 162.485 23.8491C162.695 23.9291 162.91 24.0141 163.13 24.1041L164.465 24.6891C164.775 24.8091 165.06 24.9491 165.32 25.1091C165.58 25.2591 165.805 25.4391 165.995 25.6491C166.195 25.8491 166.35 26.0891 166.46 26.3691C166.57 26.6391 166.625 26.9541 166.625 27.3141C166.625 27.7041 166.545 28.0741 166.385 28.4241C166.225 28.7741 165.99 29.0791 165.68 29.3391C165.37 29.5991 164.995 29.8041 164.555 29.9541C164.115 30.1041 163.615 30.1791 163.055 30.1791Z" fill="white"/>
<path d="M172.004 29.9991V21.4341H168.839V20.1741H176.669V21.4341H173.504V29.9991H172.004Z" fill="white"/>
<path d="M182.513 30.1791C182.003 30.1791 181.538 30.1041 181.118 29.9541C180.708 29.8041 180.353 29.5741 180.053 29.2641C179.753 28.9441 179.523 28.5391 179.363 28.0491C179.203 27.5491 179.123 26.9541 179.123 26.2641V20.1741H180.638V26.3541C180.638 27.2541 180.808 27.8991 181.148 28.2891C181.498 28.6791 181.953 28.8741 182.513 28.8741C183.073 28.8741 183.528 28.6791 183.878 28.2891C184.238 27.8991 184.418 27.2541 184.418 26.3541V20.1741H185.873V26.2641C185.873 26.9541 185.793 27.5491 185.633 28.0491C185.473 28.5391 185.248 28.9441 184.958 29.2641C184.668 29.5741 184.313 29.8041 183.893 29.9541C183.483 30.1041 183.023 30.1791 182.513 30.1791Z" fill="white"/>
<path d="M188.987 29.9991V20.1741H191.477C192.957 20.1741 194.092 20.5841 194.882 21.4041C195.682 22.2241 196.082 23.4391 196.082 25.0491C196.082 26.6491 195.687 27.8741 194.897 28.7241C194.107 29.5741 192.992 29.9991 191.552 29.9991H188.987ZM190.487 28.7841H191.387C192.417 28.7841 193.197 28.4691 193.727 27.8391C194.267 27.2091 194.537 26.2791 194.537 25.0491C194.537 23.8191 194.267 22.9041 193.727 22.3041C193.197 21.6941 192.417 21.3891 191.387 21.3891H190.487V28.7841Z" fill="white"/>
<path d="M198.836 29.9991V28.7391H201.236V21.4341H198.836V20.1741H205.136V21.4341H202.736V28.7391H205.136V29.9991H198.836Z" fill="white"/>
<path d="M211.73 30.1791C211.17 30.1791 210.655 30.0641 210.185 29.8341C209.715 29.6041 209.31 29.2741 208.97 28.8441C208.63 28.4041 208.365 27.8641 208.175 27.2241C207.995 26.5841 207.905 25.8591 207.905 25.0491C207.905 24.2491 207.995 23.5341 208.175 22.9041C208.365 22.2741 208.63 21.7441 208.97 21.3141C209.31 20.8841 209.715 20.5591 210.185 20.3391C210.655 20.1091 211.17 19.9941 211.73 19.9941C212.29 19.9941 212.805 20.1091 213.275 20.3391C213.745 20.5591 214.145 20.8841 214.475 21.3141C214.815 21.7441 215.08 22.2741 215.27 22.9041C215.46 23.5341 215.555 24.2491 215.555 25.0491C215.555 25.8591 215.46 26.5841 215.27 27.2241C215.08 27.8641 214.815 28.4041 214.475 28.8441C214.145 29.2741 213.745 29.6041 213.275 29.8341C212.805 30.0641 212.29 30.1791 211.73 30.1791ZM211.73 28.8741C212.42 28.8741 212.97 28.5391 213.38 27.8691C213.8 27.1991 214.01 26.2591 214.01 25.0491C214.01 23.8591 213.8 22.9391 213.38 22.2891C212.97 21.6291 212.42 21.2991 211.73 21.2991C211.04 21.2991 210.485 21.6291 210.065 22.2891C209.655 22.9391 209.45 23.8591 209.45 25.0491C209.45 26.2591 209.655 27.1991 210.065 27.8691C210.485 28.5391 211.04 28.8741 211.73 28.8741Z" fill="white"/>
<path d="M23.7928 38C22.8952 38 21.9809 37.9219 21.05 37.7658C20.1192 37.6096 19.2049 37.3624 18.3073 37.024C17.4096 36.6857 17.1159 36.5843 16.318 36.0638V31.8122C17.7559 32.4442 18.2794 32.6886 20.1246 33.3996C21.3386 33.8082 22.4796 34.0571 23.6432 34.0571C25.638 34.0571 27.1174 33.6537 28.0815 32.8468C29.0457 32.04 29.5277 30.6607 29.5277 28.7087V15.7868H16.3125V12H35.3125V29.0991C35.3125 30.3223 35.113 31.4805 34.7141 32.5736C34.3151 33.6406 33.6668 34.5776 32.7692 35.3844C31.8716 36.1912 30.6747 36.8288 29.1786 37.2973C27.7158 37.7658 25.9206 38 23.7928 38Z" fill="black"/>
</svg>
