<svg width="90" height="90" viewBox="0 0 90 90" fill="none" xmlns="http://www.w3.org/2000/svg">
<circle cx="45" cy="45" r="45" fill="#333333" fill-opacity="0.7"/>
<rect x="43" y="37" width="2" height="10" rx="1" fill="#FAFAFA"/>
<rect x="39" y="43" width="2" height="10" rx="1" transform="rotate(-90 39 43)" fill="#FAFAFA"/>
<path d="M44.0773 30C37.4073 30 32 35.4073 32 42.0773C32 48.7473 37.4073 54.1546 44.0773 54.1546C46.8497 54.1589 49.5384 53.2053 51.6885 51.4551L59.852 59.6186C59.9672 59.7379 60.1051 59.8331 60.2575 59.8986C60.4099 59.964 60.5739 59.9985 60.7398 60C60.9057 60.0014 61.0702 59.9698 61.2237 59.907C61.3773 59.8441 61.5168 59.7514 61.6341 59.6341C61.7514 59.5168 61.8441 59.3773 61.907 59.2237C61.9698 59.0702 62.0014 58.9057 62 58.7398C61.9985 58.5739 61.964 58.4099 61.8986 58.2575C61.8331 58.1051 61.7379 57.9672 61.6186 57.852L53.456 49.6885C55.2058 47.5383 56.1591 44.8496 56.1546 42.0773C56.1546 35.4073 50.7473 30 44.0773 30ZM34.4988 42.0773C34.4988 36.7875 38.7875 32.4988 44.0773 32.4988C49.3672 32.4988 53.6559 36.7875 53.6559 42.0773C53.6559 47.3672 49.3672 51.6559 44.0773 51.6559C38.7875 51.6559 34.4988 47.3672 34.4988 42.0773Z" fill="#FAFAFA"/>
</svg>
