<svg width="24" height="25" viewBox="0 0 24 25" fill="none" xmlns="http://www.w3.org/2000/svg">
<path d="M5.02222 10.6945C6.62222 13.8503 9.2 16.4262 12.3444 18.0431L14.7889 15.5898C15.0889 15.2887 15.5333 15.1884 15.9222 15.3222C17.1667 15.7348 18.5111 15.9578 19.8889 15.9578C20.5 15.9578 21 16.4596 21 17.0729V20.9646C21 21.578 20.5 22.0798 19.8889 22.0798C9.45556 22.0798 1 13.5938 1 3.12292C1 2.50961 1.5 2.00781 2.11111 2.00781H6C6.61111 2.00781 7.11111 2.50961 7.11111 3.12292C7.11111 4.51681 7.33333 5.85494 7.74444 7.10386C7.86667 7.49414 7.77778 7.92904 7.46667 8.24127L5.02222 10.6945Z" fill="white"/>
</svg>
