<svg width="23" height="23" viewBox="0 0 23 23" fill="none" xmlns="http://www.w3.org/2000/svg">
<path d="M15.2728 0H8.45777C2.23869 0 0.764404 1.47959 0.764404 7.72104V14.5606C0.764404 20.802 2.23869 22.2816 8.45777 22.2816H15.2728C21.4919 22.2816 22.9662 20.802 22.9662 14.5606V7.72104C22.9662 1.47959 21.4773 0 15.2728 0ZM18.6876 15.8947H17.0759C16.4654 15.8947 16.2774 15.4087 15.1791 14.2918C14.2252 13.3637 13.8027 13.2404 13.5675 13.2404C13.2352 13.2404 13.1408 13.3344 13.1408 13.7919V15.2534C13.1408 15.6454 13.018 15.8807 11.9843 15.8807C10.2748 15.8807 8.37798 14.8433 7.048 12.9104C5.04227 10.0779 4.49349 7.95638 4.49349 7.51772C4.49349 7.28169 4.58715 7.06097 5.0388 7.06097H6.65393C7.06257 7.06097 7.21798 7.24966 7.37685 7.68831C8.1754 10.002 9.50538 12.0289 10.0542 12.0289C10.2567 12.0289 10.3504 11.9349 10.3504 11.4162V9.02656C10.2887 7.92435 9.71074 7.82966 9.71074 7.43835C9.71074 7.24966 9.86615 7.06097 10.1152 7.06097H12.6552C12.9986 7.06097 13.1248 7.24966 13.1248 7.65559V10.8794C13.1248 11.2275 13.2803 11.3507 13.3739 11.3507C13.5765 11.3507 13.7499 11.2275 14.1253 10.8501C15.2853 9.54459 16.1164 7.53165 16.1164 7.53165C16.2247 7.29561 16.4127 7.07489 16.8213 7.07489H18.4365C18.9207 7.07489 19.0289 7.32486 18.9207 7.673C18.7181 8.61576 16.7415 11.4155 16.7415 11.4155C16.5716 11.6982 16.5063 11.8214 16.7415 12.1368C16.915 12.3729 17.479 12.8624 17.8544 13.301C18.5447 14.0878 19.0754 14.7479 19.217 15.2046C19.3758 15.6579 19.1413 15.894 18.6855 15.894L18.6876 15.8947Z" fill="white"/>
</svg>
